<?xml version="1.0" standalone="no"?>
<!DOCTYPE svg PUBLIC "-//W3C//DTD SVG 20010904//EN"
 "http://www.w3.org/TR/2001/REC-SVG-20010904/DTD/svg10.dtd">
<svg version="1.0" xmlns="http://www.w3.org/2000/svg"
 width="1292.000000pt" height="1292.000000pt" viewBox="0 0 1292.000000 1292.000000"
 preserveAspectRatio="xMidYMid meet">
<metadata>
Created by potrace 1.11, written by Peter Selinger 2001-2013
</metadata>
<g transform="translate(0.000000,1292.000000) scale(0.100000,-0.100000)"
fill="#000000" stroke="none">
<path d="M7798 12889 c-16 -4 -28 -5 -28 -2 0 3 -6 0 -14 -6 -10 -8 -16 -9
-21 -1 -3 6 -11 8 -16 4 -5 -3 -6 -11 -2 -17 4 -8 2 -8 -9 1 -13 10 -17 10
-21 -2 -4 -9 -18 -14 -36 -14 -30 1 -66 -24 -53 -37 4 -4 -7 0 -25 9 -17 9
-34 20 -37 25 -3 5 -15 7 -26 4 -11 -3 -17 -9 -15 -14 8 -12 -57 -28 -71 -18
-6 5 -16 3 -24 -4 -10 -10 -11 -9 -5 1 6 11 3 12 -11 4 -11 -5 -40 -9 -66 -8
-25 0 -44 -2 -41 -6 2 -5 -5 -8 -17 -8 -14 0 -19 -4 -14 -12 5 -8 2 -8 -10 1
-9 8 -16 10 -15 5 4 -24 -4 -33 -36 -44 -19 -6 -35 -15 -35 -20 0 -4 -11 -11
-25 -14 -14 -4 -24 -10 -21 -14 2 -4 -19 -8 -48 -10 -182 -10 -198 -13 -204
-30 -2 -7 -7 -10 -10 -8 -4 2 -13 -2 -20 -10 -10 -11 -10 -14 0 -14 6 0 3 -6
-7 -14 -11 -8 -26 -11 -34 -8 -9 3 -12 1 -7 -6 4 -7 -1 -9 -16 -6 -66 14 -70
15 -62 3 4 -7 3 -9 -4 -6 -13 9 -44 -2 -37 -13 3 -5 -5 -6 -17 -2 -14 3 -19 1
-14 -6 4 -7 -1 -10 -14 -7 -11 2 -20 -1 -20 -7 0 -5 -6 -8 -14 -5 -7 3 -18 1
-22 -3 -5 -5 -19 -11 -30 -13 -11 -1 -31 -13 -44 -25 -13 -12 -32 -24 -42 -28
-10 -3 -18 -10 -18 -15 0 -6 -8 -6 -20 1 -14 7 -20 7 -20 0 0 -5 -5 -9 -12 -7
-7 1 -12 -3 -13 -10 0 -6 -4 -15 -9 -20 -5 -4 -6 -3 -3 3 4 7 0 15 -8 18 -9 3
-18 -1 -21 -9 -4 -8 -10 -12 -15 -9 -5 3 -9 1 -9 -4 0 -6 -8 -9 -17 -8 -11 0
-17 -5 -15 -13 3 -12 0 -12 -12 -1 -14 10 -16 10 -17 -6 0 -11 -3 -14 -5 -7
-4 9 -11 9 -30 1 -13 -6 -24 -15 -24 -20 0 -4 -7 -8 -16 -8 -9 0 -12 -5 -8
-12 6 -10 4 -10 -7 0 -18 17 -32 15 -25 -4 3 -9 2 -12 -5 -9 -12 8 -41 -14
-33 -26 3 -5 -2 -6 -10 -3 -11 4 -16 0 -17 -12 0 -11 -3 -14 -5 -7 -3 7 -12 9
-20 6 -7 -3 -11 -10 -7 -17 4 -6 -1 -5 -11 3 -15 12 -17 12 -14 0 2 -8 -4 -13
-14 -13 -10 1 -15 -2 -13 -7 3 -4 -4 -13 -15 -19 -11 -6 -18 -15 -15 -20 3 -6
-1 -7 -9 -4 -9 4 -18 -1 -22 -10 -3 -9 -10 -13 -15 -10 -5 3 -16 -1 -24 -8
-37 -34 -44 -37 -50 -28 -3 6 -11 10 -16 10 -6 0 -8 -4 -5 -9 3 -4 -7 -6 -22
-4 -21 4 -24 2 -12 -6 13 -9 13 -11 -1 -11 -21 0 -72 -47 -64 -60 4 -6 -1 -7
-12 -3 -16 6 -17 5 -3 -12 9 -11 10 -16 3 -11 -8 4 -13 2 -13 -4 0 -7 -7 -10
-15 -6 -8 3 -14 0 -12 -7 1 -7 -4 -11 -10 -9 -11 2 -16 -8 -15 -28 0 -3 -11
-6 -25 -7 -14 0 -30 -6 -37 -13 -8 -10 -5 -11 14 -6 25 6 25 6 3 -5 -20 -11
-29 -34 -24 -62 1 -5 -4 -5 -11 -1 -19 12 -39 14 -32 3 3 -5 10 -7 15 -4 5 4
9 1 9 -4 0 -6 -5 -11 -11 -11 -7 0 -9 -9 -6 -21 4 -16 3 -18 -8 -9 -9 8 -14 6
-19 -6 -4 -10 -13 -14 -25 -11 -13 3 -28 -6 -46 -29 -15 -19 -31 -31 -36 -28
-5 3 -6 -3 -2 -12 4 -12 3 -15 -5 -10 -7 4 -12 2 -12 -3 0 -6 -7 -11 -15 -11
-14 0 -20 -13 -16 -34 1 -5 -6 -3 -15 5 -16 13 -16 12 -5 -9 6 -12 8 -22 4
-21 -17 3 -33 -1 -31 -8 1 -5 -14 -25 -35 -47 -20 -21 -34 -42 -31 -47 3 -5
-3 -6 -12 -2 -11 4 -15 3 -10 -5 3 -6 -3 -13 -15 -17 -15 -5 -19 -13 -16 -27
5 -16 3 -17 -11 -6 -9 7 -14 9 -10 4 4 -5 -11 -27 -33 -50 -28 -29 -39 -48
-36 -63 2 -12 1 -20 -3 -18 -5 3 -11 -2 -14 -11 -4 -10 -2 -13 7 -9 6 4 4 0
-5 -8 -10 -8 -15 -17 -12 -20 3 -3 -5 -3 -18 0 -18 4 -20 3 -8 -6 13 -9 12
-11 -3 -11 -10 0 -15 -4 -12 -10 3 -5 -1 -10 -9 -10 -9 0 -16 -4 -16 -9 0 -4
-11 -7 -26 -5 -21 2 -23 0 -13 -12 10 -12 9 -13 -6 -8 -11 4 -16 3 -12 -2 3
-5 -4 -21 -15 -34 -11 -14 -17 -18 -13 -10 4 8 -5 2 -21 -15 -16 -16 -28 -33
-27 -37 2 -4 -6 -5 -17 -3 -12 2 -18 0 -15 -6 4 -5 1 -9 -5 -9 -6 0 -18 -7
-26 -15 -10 -9 -11 -15 -4 -15 6 0 3 -11 -9 -25 -12 -16 -18 -35 -15 -50 2
-14 0 -25 -6 -25 -6 0 -9 -4 -6 -8 2 -4 -3 -9 -12 -10 -9 -1 -26 -4 -37 -6
-11 -2 -23 -5 -27 -5 -4 -1 -5 -8 -2 -16 4 -10 2 -13 -8 -10 -18 7 -23 -22
-15 -77 2 -14 1 -32 -4 -39 -4 -8 -3 -19 2 -25 7 -8 -1 -18 -26 -34 -19 -12
-32 -27 -29 -32 4 -7 2 -8 -4 -4 -16 10 -74 -54 -69 -76 3 -10 1 -18 -4 -18
-5 0 -8 -3 -7 -7 3 -16 -15 -43 -27 -43 -14 0 -11 -45 4 -65 18 -23 19 -55 3
-65 -10 -5 -12 -10 -4 -10 6 0 12 -8 12 -18 0 -10 5 -23 12 -30 7 -7 8 -12 4
-12 -5 0 -2 -8 5 -17 10 -11 10 -14 2 -9 -13 7 -14 4 -17 -31 0 -10 -6 -24
-13 -31 -16 -17 -17 -36 -1 -26 7 4 8 3 4 -4 -4 -6 -13 -9 -20 -6 -14 5 -28
-17 -31 -48 -1 -10 2 -18 6 -18 5 0 8 -3 8 -7 -3 -20 2 -34 11 -28 6 3 7 -1 4
-9 -4 -9 1 -18 10 -22 9 -3 16 -17 16 -30 0 -13 4 -24 10 -24 6 0 6 -9 0 -24
-6 -17 -4 -30 6 -45 10 -13 11 -21 4 -21 -6 0 -9 -3 -7 -7 3 -5 1 -17 -3 -28
-4 -11 -4 -32 1 -47 4 -16 3 -28 -2 -30 -6 -2 -4 -16 5 -32 8 -16 13 -33 10
-38 -3 -5 0 -16 8 -25 8 -10 8 -14 1 -10 -7 4 -14 -1 -18 -13 -3 -11 -11 -20
-16 -20 -6 0 -8 -4 -5 -9 3 -5 -1 -14 -9 -21 -12 -10 -13 -16 -3 -28 11 -13
11 -14 0 -8 -18 11 -6 -56 17 -99 9 -16 16 -40 15 -52 -1 -14 4 -23 13 -23 8
0 11 -4 8 -10 -3 -5 -1 -10 5 -10 6 0 8 -4 5 -10 -3 -5 -3 -10 2 -10 4 0 9
-12 10 -27 0 -15 6 -29 12 -31 6 -2 11 -8 11 -13 0 -6 -6 -7 -12 -3 -7 4 -5
-2 5 -13 9 -11 14 -23 10 -26 -3 -4 -1 -7 6 -7 8 0 10 -7 6 -20 -4 -14 -2 -20
8 -20 15 0 42 -47 38 -67 -1 -7 3 -13 10 -13 6 0 9 -6 6 -14 -3 -7 2 -24 10
-37 9 -12 11 -19 5 -15 -18 11 -14 -6 8 -34 11 -14 20 -30 20 -36 0 -5 9 -29
20 -52 11 -22 20 -46 20 -51 0 -6 8 -15 18 -20 9 -6 13 -11 9 -11 -14 0 52
-80 133 -160 41 -41 68 -65 60 -55 -14 19 -14 19 3 6 9 -7 17 -19 17 -26 0 -8
4 -15 9 -17 5 -1 11 -10 13 -18 2 -8 8 -18 13 -22 6 -5 5 -8 -2 -8 -7 0 -13
-9 -13 -21 0 -13 4 -18 13 -13 7 5 7 1 -2 -10 -13 -15 -13 -19 0 -27 8 -5 9
-9 4 -9 -15 0 -16 -40 -2 -40 8 0 8 -3 2 -8 -16 -11 -19 -46 -3 -36 9 6 9 3
-1 -10 -13 -15 -13 -19 0 -27 11 -7 11 -9 0 -9 -11 0 -11 -3 0 -17 8 -9 9 -14
2 -10 -14 8 -13 -50 1 -72 6 -9 5 -12 -1 -8 -15 9 -14 -124 0 -142 8 -10 8
-13 1 -8 -8 4 -12 -8 -12 -39 -1 -32 2 -43 11 -37 9 5 9 3 0 -8 -17 -22 -19
-74 -3 -95 8 -10 10 -15 3 -11 -9 6 -11 -12 -8 -70 1 -43 4 -80 5 -83 1 -3 2
-8 1 -12 0 -5 6 -8 14 -8 8 0 15 -6 15 -14 0 -8 7 -17 16 -20 9 -3 14 -13 10
-21 -3 -8 -1 -17 5 -21 7 -4 6 -10 -1 -19 -7 -8 -7 -15 -1 -19 5 -3 8 -18 6
-32 -2 -20 1 -24 14 -19 12 5 13 3 4 -6 -7 -7 -8 -18 -3 -28 4 -9 18 -37 30
-63 13 -26 27 -45 33 -41 6 3 7 1 3 -5 -3 -5 11 -28 33 -50 37 -37 53 -79 55
-147 1 -11 5 -26 10 -34 6 -10 6 -12 -2 -7 -8 5 -12 -2 -12 -18 0 -14 4 -26 8
-26 9 0 11 -6 14 -65 2 -22 7 -43 13 -47 5 -4 8 -23 6 -44 -2 -28 0 -34 11
-28 11 6 11 5 0 -8 -7 -9 -9 -18 -5 -20 4 -1 16 -18 25 -36 10 -18 13 -30 7
-26 -8 4 -9 -1 -3 -17 4 -13 7 -30 7 -37 0 -7 7 -10 14 -8 8 3 11 1 8 -4 -9
-14 4 -72 14 -65 5 2 7 -7 5 -20 -1 -14 3 -25 9 -25 5 0 7 -3 4 -7 -4 -3 0
-17 8 -30 9 -13 14 -27 11 -31 -3 -5 1 -21 9 -36 8 -14 10 -24 5 -21 -6 4 -10
1 -10 -4 0 -6 4 -11 10 -11 5 0 9 -3 8 -7 -4 -14 33 -113 42 -113 4 0 11 -10
15 -22 4 -13 8 -25 10 -28 1 -3 6 -20 10 -37 4 -18 12 -33 17 -33 5 0 6 -4 3
-10 -3 -5 3 -15 14 -21 10 -7 17 -18 14 -26 -4 -11 19 -45 28 -40 3 1 1 -2 -3
-7 -4 -5 -2 -18 3 -29 12 -22 3 -87 -12 -87 -6 0 -8 -4 -5 -8 3 -5 -3 -18 -14
-30 -14 -14 -16 -22 -7 -25 8 -4 8 -6 -2 -6 -11 -1 -11 -4 0 -18 8 -9 9 -14 2
-10 -11 7 -30 -28 -25 -46 1 -5 -2 -6 -7 -3 -8 5 -22 -16 -25 -39 -1 -5 -10
-28 -19 -50 -10 -22 -16 -48 -14 -57 3 -10 0 -16 -5 -15 -6 1 -12 -7 -14 -18
-3 -11 -7 -31 -10 -45 -3 -14 -6 -33 -7 -42 -1 -9 -5 -16 -10 -15 -5 1 -14 -7
-20 -18 -7 -11 -18 -24 -24 -28 -7 -4 -13 -15 -13 -22 0 -8 -4 -15 -10 -15 -5
0 -10 -9 -10 -20 0 -11 -5 -20 -11 -20 -5 0 -7 -5 -4 -10 3 -6 1 -10 -5 -10
-6 0 -8 -5 -5 -10 4 -6 1 -18 -6 -26 -6 -8 -9 -17 -6 -21 4 -3 2 -12 -4 -20
-9 -10 -8 -13 2 -13 9 0 10 -3 4 -8 -10 -7 -16 -23 -18 -54 -1 -20 -47 -26
-47 -6 0 6 -3 8 -7 5 -3 -4 -14 0 -22 8 -18 15 -80 23 -98 12 -6 -4 -14 -1
-16 5 -4 10 -8 9 -16 -2 -10 -13 -11 -13 -11 0 0 12 -2 12 -9 2 -4 -8 -12 -14
-17 -14 -19 0 -94 -39 -94 -49 0 -6 -4 -8 -9 -5 -13 8 -20 -28 -9 -47 7 -13 5
-15 -7 -11 -8 4 -17 0 -21 -10 -8 -21 -72 -58 -79 -45 -4 5 -15 4 -28 -3 -12
-6 -38 -12 -57 -13 -73 -3 -81 -5 -74 -17 4 -7 3 -8 -5 -4 -15 10 -43 -13 -34
-27 3 -5 2 -7 -4 -4 -13 8 -55 -31 -47 -44 3 -5 2 -9 -3 -8 -23 4 -35 -2 -29
-17 3 -8 2 -12 -4 -9 -12 8 -51 -26 -43 -38 3 -6 1 -7 -4 -4 -6 4 -16 1 -22
-7 -9 -11 -9 -15 1 -20 9 -4 9 -5 -2 -5 -33 2 -42 -2 -37 -15 4 -10 1 -13 -9
-9 -10 4 -17 -2 -21 -15 -3 -14 -10 -19 -21 -15 -10 4 -13 2 -8 -5 4 -7 2 -12
-4 -12 -6 0 -9 -4 -6 -9 3 -4 -6 -13 -19 -19 -14 -7 -26 -16 -26 -22 -1 -5 -2
-14 -3 -19 0 -5 -5 -13 -10 -18 -5 -5 -6 -3 -2 5 13 22 -5 13 -42 -23 -21 -19
-41 -35 -47 -36 -18 -2 -35 -21 -28 -32 3 -6 1 -7 -5 -3 -7 4 -34 -15 -67 -48
-30 -30 -55 -52 -55 -49 0 3 -7 -1 -16 -8 -9 -7 -23 -14 -32 -16 -9 -1 -21 -8
-27 -15 -6 -7 -21 -19 -34 -26 -19 -11 -22 -11 -16 0 4 7 -2 2 -13 -11 -11
-14 -21 -19 -23 -12 -3 7 -16 0 -34 -16 -16 -15 -38 -26 -48 -25 -11 2 -17 0
-14 -5 3 -5 -10 -8 -29 -8 -19 1 -34 -3 -34 -8 0 -6 -3 -7 -7 -4 -3 4 -12 2
-19 -3 -6 -6 -22 -13 -35 -15 -12 -3 -25 -8 -28 -13 -3 -5 -14 -8 -24 -6 -12
1 -17 -2 -13 -11 3 -9 0 -12 -11 -8 -8 3 -19 0 -24 -8 -4 -8 -12 -14 -16 -14
-15 0 -73 -27 -73 -34 0 -4 -16 -13 -35 -21 -19 -8 -35 -17 -35 -21 0 -6 -29
-17 -46 -17 -3 -1 -14 -11 -25 -23 -10 -12 -19 -19 -19 -15 0 4 -13 -2 -29
-13 -15 -11 -32 -17 -36 -13 -5 4 -6 0 -2 -9 4 -13 1 -16 -14 -12 -11 3 -19 0
-19 -6 0 -7 -4 -10 -9 -6 -5 3 -12 1 -16 -5 -4 -6 -10 -8 -15 -5 -4 3 -10 -2
-14 -10 -3 -8 -13 -15 -21 -15 -9 0 -14 -4 -11 -9 4 -5 -3 -7 -14 -4 -14 4
-20 1 -18 -8 2 -7 -2 -13 -8 -14 -6 0 -32 -22 -57 -48 -26 -26 -47 -44 -47
-40 0 4 -8 -4 -18 -20 -10 -15 -21 -25 -24 -21 -4 3 -9 -4 -13 -15 -4 -12 -11
-18 -17 -15 -7 5 -9 1 -5 -9 3 -9 3 -16 -1 -16 -20 3 -32 -2 -27 -11 4 -6 3
-9 -2 -8 -16 5 -54 -23 -47 -35 4 -7 4 -9 -1 -5 -4 4 -17 2 -29 -4 -11 -7 -25
-11 -30 -10 -5 2 -4 -3 2 -11 9 -11 7 -13 -10 -12 -12 1 -32 -10 -45 -23 -13
-14 -23 -20 -23 -13 0 6 -9 2 -20 -9 -12 -12 -18 -26 -13 -33 4 -7 0 -7 -10 2
-12 9 -17 10 -17 2 0 -7 -4 -9 -10 -6 -5 3 -10 -1 -10 -9 0 -9 -3 -15 -7 -14
-13 4 -52 -35 -46 -45 3 -6 1 -7 -5 -3 -14 8 -84 -58 -74 -70 4 -4 1 -4 -6 0
-15 9 -44 -12 -36 -25 3 -5 2 -9 -3 -8 -19 5 -41 -14 -38 -32 2 -11 0 -17 -5
-14 -11 7 -51 -35 -44 -47 3 -5 2 -7 -3 -6 -11 4 -53 -39 -45 -46 3 -3 -2 -6
-12 -6 -9 0 -19 -7 -22 -15 -4 -8 -24 -25 -45 -37 -21 -12 -39 -27 -39 -34 0
-7 -4 -16 -10 -19 -6 -4 -7 1 -3 11 4 12 3 15 -5 10 -7 -4 -12 -14 -12 -22 0
-8 -5 -12 -10 -9 -5 3 -10 1 -10 -4 0 -6 -7 -11 -15 -11 -8 0 -15 -5 -15 -11
0 -5 5 -7 12 -3 7 4 8 3 4 -5 -4 -6 -12 -8 -18 -5 -6 4 -14 0 -19 -7 -4 -8
-14 -14 -21 -14 -7 0 -12 -8 -12 -17 1 -10 -4 -14 -12 -11 -7 2 -19 -5 -26
-16 -7 -12 -17 -21 -23 -21 -6 0 -21 -13 -35 -29 -13 -17 -27 -28 -32 -25 -4
3 -5 -3 -1 -12 4 -11 2 -15 -4 -11 -13 8 -37 -38 -28 -54 6 -8 4 -10 -5 -4
-10 6 -12 4 -6 -11 4 -10 4 -15 0 -11 -9 9 -55 -58 -57 -83 -1 -11 -8 -20 -16
-20 -8 0 -12 -3 -9 -6 3 -3 -5 -17 -19 -32 -26 -28 -39 -44 -63 -76 -13 -18
-13 -19 0 -11 8 4 5 -2 -7 -14 -13 -12 -23 -28 -23 -36 0 -8 -4 -15 -9 -15 -5
0 -12 -11 -15 -25 -4 -14 -11 -25 -17 -25 -7 0 -6 -6 2 -17 8 -10 9 -14 2 -10
-8 5 -11 0 -10 -13 1 -11 6 -20 12 -21 5 0 0 -4 -13 -10 -13 -5 -21 -13 -18
-18 3 -5 0 -11 -8 -14 -18 -7 -47 -67 -39 -80 3 -5 1 -7 -4 -4 -13 8 -26 -20
-16 -35 4 -7 1 -8 -7 -3 -10 6 -12 4 -7 -9 4 -10 3 -15 -3 -11 -5 3 -12 -6
-16 -20 -3 -14 -11 -25 -18 -25 -6 0 -4 -5 4 -10 12 -8 12 -10 -5 -10 -17 0
-17 -2 -5 -10 13 -8 13 -10 -2 -10 -12 0 -16 -6 -13 -21 3 -12 2 -19 -2 -15
-9 9 -54 -57 -48 -72 3 -8 0 -10 -7 -6 -8 5 -9 2 -5 -9 4 -10 1 -17 -6 -17 -7
0 -13 -8 -14 -17 -3 -44 -8 -63 -16 -63 -4 0 -5 -4 -2 -10 3 -5 1 -10 -5 -10
-6 0 -8 -4 -5 -10 3 -5 1 -10 -5 -10 -6 0 -9 -4 -5 -9 3 -5 1 -12 -5 -16 -6
-4 -8 -11 -5 -16 4 -5 2 -9 -3 -9 -9 0 -11 -8 -15 -54 -1 -13 -5 -22 -9 -20
-3 2 -5 -13 -3 -33 2 -24 -4 -50 -16 -71 -10 -18 -13 -30 -7 -26 10 6 10 5 1
-7 -6 -8 -14 -39 -16 -69 -2 -30 -9 -56 -16 -58 -15 -5 -14 -42 2 -42 8 0 8
-3 -2 -9 -8 -5 -11 -16 -8 -26 4 -9 3 -14 -1 -12 -12 8 -29 -17 -27 -41 1 -12
-2 -22 -7 -22 -5 0 -6 -4 -3 -10 3 -5 0 -10 -7 -10 -9 0 -9 -3 2 -10 12 -8 12
-10 1 -10 -11 0 -11 -3 0 -17 10 -11 10 -14 2 -9 -7 4 -13 4 -14 -1 0 -4 -3
-17 -6 -28 -3 -11 -6 -30 -7 -42 0 -11 -4 -19 -8 -17 -4 3 -5 -9 -3 -26 2 -20
0 -28 -7 -24 -7 5 -9 0 -6 -14 4 -14 2 -20 -4 -16 -7 5 -9 -2 -6 -19 3 -14 2
-26 -1 -25 -19 2 -22 -4 -10 -19 9 -10 9 -14 2 -10 -9 6 -11 -2 -9 -28 2 -19
0 -38 -6 -41 -5 -3 -5 -11 -1 -17 10 -15 10 -38 0 -54 -4 -6 -2 -15 4 -18 6
-5 3 -13 -11 -22 -12 -8 -19 -21 -16 -29 3 -8 0 -14 -6 -14 -6 0 -5 -6 3 -17
12 -14 12 -16 0 -8 -11 6 -13 4 -8 -8 3 -9 2 -19 -4 -23 -10 -6 -29 -47 -33
-71 -1 -7 -5 -16 -9 -19 -4 -4 -2 -13 5 -21 9 -11 8 -13 -2 -11 -8 2 -15 -1
-15 -7 -1 -5 -5 -18 -9 -27 -4 -9 -4 -22 0 -29 4 -7 3 -9 -3 -6 -13 8 -31 -38
-28 -70 1 -12 -2 -20 -7 -17 -8 5 -12 -11 -9 -30 1 -4 -3 -14 -9 -20 -5 -7 -7
-16 -3 -19 11 -12 10 -87 -1 -87 -6 0 -4 -5 4 -10 12 -8 12 -10 1 -10 -11 0
-11 -3 0 -17 10 -11 10 -14 2 -9 -8 4 -13 2 -13 -8 0 -8 -3 -22 -7 -32 -5 -12
-3 -15 6 -9 7 4 5 -5 -5 -21 -14 -21 -15 -26 -4 -19 13 8 13 7 1 -8 -7 -9 -11
-26 -8 -37 3 -11 2 -20 -2 -20 -4 0 -7 -9 -7 -19 0 -11 4 -17 8 -15 4 3 8 0 8
-5 0 -6 -4 -11 -9 -11 -5 0 -8 -16 -6 -34 1 -19 -2 -41 -6 -47 -4 -8 -1 -18 9
-26 14 -11 14 -12 1 -8 -10 4 -16 0 -16 -10 0 -8 5 -15 11 -15 6 0 5 -5 -2
-12 -16 -16 -15 -31 0 -22 11 6 11 4 1 -7 -16 -16 -17 -33 -2 -24 6 4 5 -2 -3
-14 -11 -17 -11 -25 0 -42 8 -12 9 -18 4 -15 -11 6 -14 -62 -4 -78 10 -17 8
-56 -3 -56 -7 0 -7 -3 0 -8 6 -4 11 -16 10 -27 0 -20 7 -20 5548 -23 l5547 -2
0 103 c0 77 -4 108 -16 125 -8 12 -13 22 -10 22 3 0 1 12 -4 26 -6 14 -6 23
-1 20 5 -3 7 20 4 52 -2 31 -5 72 -5 90 -1 17 -5 32 -10 32 -4 0 -5 13 -3 30
2 18 -1 30 -8 30 -8 0 -8 3 -2 8 12 8 14 212 3 212 -4 0 -5 6 -2 14 3 8 0 17
-7 22 -8 5 -10 3 -4 -6 5 -9 4 -11 -4 -6 -6 4 -8 12 -5 18 4 6 2 13 -5 17 -6
4 -12 20 -14 37 -2 16 -7 35 -11 42 -4 7 -2 12 5 12 8 0 8 4 -1 15 -10 12 -10
15 0 15 10 0 10 3 1 14 -9 11 -9 15 0 18 8 3 8 8 -3 18 -8 8 -15 27 -15 43 -1
15 -2 30 -3 35 -5 19 -4 49 2 63 4 9 5 19 1 22 -10 10 -12 67 -2 67 5 0 6 7 3
15 -3 8 -7 45 -9 82 -1 38 -4 68 -5 68 0 0 -3 14 -4 31 -2 17 -10 42 -19 55
-9 13 -18 35 -20 49 -9 46 -12 55 -22 62 -6 5 -6 8 2 8 11 0 12 15 2 35 -2 6
-4 29 -4 53 1 24 -3 42 -9 42 -6 0 -4 5 4 10 11 7 11 10 2 10 -7 0 -10 5 -7
10 4 6 1 18 -7 27 -9 12 -9 15 0 9 6 -4 12 -2 12 3 0 6 -5 11 -11 11 -5 0 -7
5 -4 10 3 6 1 10 -6 10 -8 0 -8 4 1 15 10 12 10 19 2 27 -8 8 -8 17 -1 30 7
13 6 18 -2 18 -7 0 -9 10 -7 25 3 14 1 25 -3 25 -5 0 -7 13 -5 30 2 16 -1 30
-5 30 -5 0 -9 27 -9 60 0 41 -4 60 -12 60 -9 0 -8 4 2 10 12 8 12 10 1 10 -10
0 -11 3 -2 13 8 10 7 17 -1 25 -8 8 -8 15 2 27 10 12 10 15 0 15 -9 0 -9 4 -2
13 11 14 -10 41 -24 29 -5 -4 -3 0 4 10 10 12 10 18 1 23 -8 6 -7 10 2 16 8 5
9 9 3 9 -14 0 -14 30 0 30 7 0 7 3 1 8 -14 10 -17 32 -4 32 6 0 4 7 -5 15 -8
9 -12 23 -9 31 3 9 0 20 -8 25 -10 6 -10 9 -1 9 6 0 12 10 12 23 0 13 -6 29
-12 36 -9 10 -9 12 -1 7 9 -5 11 11 10 59 -1 36 -5 65 -9 65 -4 0 -5 6 -2 14
3 8 1 17 -4 20 -6 3 -8 15 -5 26 3 11 1 20 -4 20 -5 0 -9 8 -10 18 -1 32 -10
87 -17 103 -4 9 -6 20 -5 25 4 22 -2 55 -8 51 -5 -3 -9 9 -9 26 -3 51 -8 77
-15 77 -4 0 -6 8 -4 18 1 9 -1 25 -6 34 -5 9 -12 34 -15 55 -3 21 -7 43 -8 48
-1 6 -7 19 -13 30 -5 11 -8 26 -5 34 2 8 1 11 -4 8 -5 -3 -10 11 -12 31 -1 19
-7 41 -12 47 -5 7 -6 16 -2 20 4 5 2 5 -4 2 -7 -4 -15 0 -18 9 -3 9 -2 12 5 8
6 -3 5 3 -3 15 -7 12 -16 21 -20 21 -5 0 -8 6 -8 13 0 7 -8 22 -18 33 -11 11
-18 27 -16 37 1 9 -4 17 -12 17 -7 0 -11 6 -8 14 3 8 1 17 -5 20 -6 4 -7 14
-4 23 5 12 3 14 -7 8 -10 -6 -12 -3 -8 13 4 12 2 22 -4 22 -5 0 -6 5 -3 10 3
6 1 10 -5 10 -6 0 -8 5 -5 10 3 5 2 10 -4 10 -6 0 -8 7 -5 15 4 8 1 15 -6 15
-6 0 -9 4 -5 9 3 5 -1 16 -9 24 -8 8 -12 18 -8 22 4 3 -1 13 -12 20 -10 8 -15
18 -12 23 3 6 -1 12 -9 16 -8 3 -15 15 -15 26 0 11 -5 20 -11 20 -5 0 -7 5 -4
10 3 6 0 12 -7 15 -8 3 -15 15 -15 28 -1 12 -7 23 -13 25 -5 2 -10 10 -10 18
0 8 -5 14 -10 14 -6 0 -9 3 -9 7 3 18 -2 34 -9 30 -4 -3 -21 15 -37 39 -17 25
-36 42 -43 39 -7 -3 -11 -1 -8 4 8 12 -19 33 -29 23 -5 -4 -5 -1 -1 6 8 14
-23 44 -36 36 -4 -3 -6 1 -3 8 3 7 -8 22 -25 33 -16 11 -30 23 -30 28 0 11
-61 72 -71 70 -4 -2 -11 6 -14 17 -6 18 -65 69 -65 55 0 -4 -7 1 -16 9 -8 9
-22 16 -30 16 -8 0 -12 5 -9 10 3 6 -1 10 -9 10 -9 0 -16 5 -16 10 0 6 -7 10
-16 10 -8 0 -12 5 -9 10 6 9 -10 14 -42 13 -7 0 -11 3 -10 7 1 4 -2 8 -7 8 -5
0 -12 5 -15 10 -3 6 -12 12 -20 14 -7 2 -27 15 -44 30 -17 15 -35 24 -40 21
-6 -3 -7 -1 -4 4 4 6 -5 19 -19 28 -18 11 -24 13 -19 4 5 -8 -6 -1 -23 15 -18
17 -32 26 -32 20 0 -5 -4 -3 -8 4 -5 7 -19 14 -31 17 -13 2 -29 9 -36 15 -7 6
-27 12 -44 13 -17 1 -31 6 -31 11 0 5 -3 6 -7 3 -3 -4 -16 -1 -27 6 -12 7 -36
12 -55 11 -18 -1 -28 2 -21 6 16 10 -5 18 -42 16 -14 -1 -25 1 -23 4 2 3 -16
12 -41 19 -24 7 -44 17 -44 22 0 5 -9 9 -20 9 -11 0 -20 5 -20 11 0 6 -7 8
-16 5 -8 -3 -12 -2 -9 4 3 6 1 11 -4 11 -18 2 -24 5 -76 29 -27 13 -53 23 -57
22 -5 -1 -8 2 -8 6 0 4 -8 8 -17 9 -47 2 -71 8 -67 15 3 4 -7 10 -21 14 -14 3
-25 10 -25 15 0 5 -3 9 -7 8 -17 -2 -53 14 -53 23 0 6 -7 5 -16 -2 -8 -8 -14
-9 -13 -4 4 21 -2 26 -17 14 -12 -11 -15 -11 -12 1 2 8 -3 13 -9 11 -7 -1 -13
3 -13 8 0 6 -6 10 -12 9 -7 -1 -22 2 -32 6 -25 11 -77 66 -71 75 3 4 -2 10
-10 14 -8 3 -15 12 -15 21 0 8 -3 15 -7 15 -5 0 -9 12 -10 26 0 15 -5 29 -10
33 -4 3 -9 17 -11 31 -1 14 -7 27 -12 28 -6 2 -8 8 -4 13 3 5 0 9 -7 9 -7 0
-10 3 -6 6 3 4 0 19 -9 35 -8 16 -15 32 -15 36 -1 5 -12 27 -24 50 -13 22 -21
44 -18 47 4 3 1 6 -5 6 -7 0 -19 18 -28 40 -9 22 -20 40 -25 40 -5 0 -9 6 -9
13 0 7 -9 23 -19 34 -11 12 -17 24 -14 27 4 3 2 6 -4 6 -6 0 -16 14 -22 30 -5
17 -15 30 -21 30 -7 0 -10 6 -7 13 2 6 -7 22 -20 35 -13 12 -22 22 -19 22 3 0
-10 16 -29 37 -19 20 -32 40 -29 45 3 4 0 8 -6 8 -6 0 -8 4 -5 10 3 6 -1 7 -9
4 -11 -4 -16 0 -16 11 0 9 -4 13 -10 10 -5 -3 -10 1 -10 9 0 9 -4 16 -9 16 -5
0 -11 11 -13 25 -3 14 -1 25 3 25 5 0 8 4 7 9 -2 5 6 17 17 26 11 9 13 14 5
10 -10 -4 -9 -2 3 8 9 8 17 19 17 26 0 6 5 11 10 11 6 0 9 3 9 8 -3 19 2 33
11 27 6 -3 10 3 10 14 0 11 6 26 13 33 23 24 58 78 51 78 -4 0 1 6 11 14 11 8
16 20 12 29 -4 10 -2 16 5 14 6 -1 13 4 16 12 3 9 0 11 -8 6 -9 -6 -11 -4 -6
4 5 7 10 10 13 7 9 -8 36 32 82 118 32 61 39 81 29 87 -10 7 -9 9 4 9 11 0 15
6 11 20 -3 11 0 20 6 20 6 0 11 9 11 19 0 11 5 23 10 26 6 4 8 11 5 16 -4 5
-1 9 5 9 6 0 9 4 5 10 -3 5 -2 17 3 27 17 32 31 68 34 83 2 8 6 17 9 20 4 3
10 16 14 29 5 18 4 22 -6 16 -8 -5 -6 1 4 12 9 11 14 23 10 26 -3 4 -1 7 7 7
10 0 10 4 -1 17 -12 14 -12 16 0 8 11 -6 13 -2 9 18 -3 14 -1 25 5 24 5 -1 11
11 13 27 1 16 7 32 11 35 5 3 8 18 8 34 -1 15 3 27 7 27 4 0 5 6 2 14 -3 8 1
37 10 65 11 38 12 51 3 51 -8 1 -7 5 3 13 14 11 21 36 21 79 0 10 5 20 10 24
6 4 6 11 -2 20 -7 8 -7 14 -1 14 5 0 13 7 16 16 3 8 2 13 -2 10 -5 -3 -9 1 -9
9 0 8 5 11 10 8 6 -3 8 7 5 25 -2 17 -1 29 4 26 4 -3 8 5 7 18 0 13 2 33 6 46
5 15 3 22 -6 22 -11 0 -11 2 1 10 8 5 15 17 15 26 0 24 31 41 51 29 8 -6 15
-14 14 -19 -1 -10 46 -36 66 -36 8 0 14 -4 14 -8 0 -5 7 -9 15 -9 8 0 15 5 15
11 0 6 4 6 8 -2 6 -8 28 -11 73 -9 78 5 91 8 106 27 7 8 13 11 13 7 0 -4 6 -2
14 5 8 7 12 16 9 20 -2 4 2 6 9 3 7 -3 35 15 62 40 42 40 46 47 35 62 -11 14
-11 15 -1 9 9 -5 21 0 33 13 22 23 25 36 7 25 -10 -6 -10 -5 -1 8 7 8 10 18 6
21 -3 4 -2 7 4 7 5 0 9 10 8 23 -1 12 2 28 8 35 6 8 5 12 -4 12 -9 0 -10 3 -4
8 10 7 16 23 19 52 1 8 10 30 20 49 10 18 12 30 6 26 -9 -5 -9 -2 -1 14 6 12
16 30 21 41 6 12 8 25 5 30 -4 6 -2 10 4 10 5 0 8 9 6 20 -2 11 0 20 4 20 5 0
11 8 15 18 3 9 9 23 12 31 5 10 3 11 -7 5 -11 -6 -12 -5 -2 8 7 8 10 18 6 21
-3 4 -2 7 4 7 5 0 10 7 10 15 0 8 -4 12 -9 9 -4 -3 -8 0 -8 5 0 6 4 11 9 11 5
0 8 13 7 29 -1 17 2 27 8 24 5 -4 7 3 4 15 -3 12 -1 23 6 26 7 3 6 5 -3 5 -11
1 -11 5 1 24 8 12 14 37 13 55 0 17 4 32 9 32 6 0 5 5 -1 11 -8 8 -6 19 6 40
14 26 14 31 1 39 -10 6 -11 10 -3 10 7 0 20 14 29 31 9 18 11 28 4 24 -7 -4
-4 5 6 21 11 15 14 25 7 21 -8 -5 -8 1 2 19 8 15 12 31 9 36 -3 4 1 8 8 8 9 0
9 3 -2 10 -12 8 -12 10 -1 10 8 0 11 7 8 20 -3 11 -1 20 5 20 5 0 7 4 4 9 -4
5 -2 20 3 34 7 17 6 28 -2 36 -9 10 -9 12 2 9 10 -2 14 11 14 54 1 31 4 55 8
52 3 -2 6 10 5 26 -1 17 -5 30 -11 30 -5 0 -4 4 3 9 8 4 14 12 14 16 0 4 -6
12 -14 16 -7 5 -8 9 -2 9 6 0 11 7 11 15 0 8 -5 15 -10 15 -5 0 -7 9 -4 20 3
11 1 20 -4 20 -4 0 -5 7 -2 17 4 10 2 14 -4 10 -6 -4 -10 4 -10 20 0 15 -6 29
-12 31 -6 2 -11 13 -11 23 0 11 -4 17 -10 14 -5 -3 -10 3 -10 14 0 11 -9 22
-20 26 -11 4 -18 10 -16 14 7 11 -52 43 -66 35 -7 -5 -8 -3 -4 5 6 9 -4 11
-39 7 -26 -3 -52 -9 -58 -13 -13 -8 -14 -8 -62 -18 -16 -3 -34 -10 -39 -16
-16 -15 -49 -11 -43 6 4 8 2 17 -4 21 -6 4 -6 11 2 20 6 8 8 14 3 14 -5 0 -1
5 9 11 9 5 17 17 17 24 0 8 7 15 15 15 8 0 14 3 13 8 -1 4 2 16 8 27 6 11 9
30 8 43 0 12 3 22 9 22 5 0 4 7 -3 15 -10 12 -10 15 0 15 9 0 9 4 -1 17 -12
15 -12 16 1 8 13 -7 13 -6 2 7 -14 17 -6 51 10 42 6 -4 7 2 3 16 -5 15 -4 20
4 16 10 -6 13 0 10 20 0 4 4 10 11 14 6 4 13 20 15 36 2 16 4 31 5 34 2 3 2 8
1 13 0 4 6 7 15 7 10 0 14 6 11 14 -4 10 -1 13 9 9 11 -4 14 1 10 21 -3 14 0
26 5 26 5 0 9 6 9 14 0 8 6 17 13 19 9 4 8 6 -2 6 -11 1 -11 4 -1 16 10 12 9
15 -4 15 -10 0 -14 5 -11 10 3 6 0 10 -7 10 -10 0 -10 2 1 9 11 7 11 9 0 14
-12 5 -12 7 -1 15 8 5 13 12 13 16 -1 3 -1 7 0 9 6 19 6 37 -1 37 -4 0 -10 9
-13 20 -3 11 -1 20 5 20 5 0 6 5 3 10 -3 6 0 13 9 16 8 3 15 13 15 22 3 67 7
102 13 102 4 0 5 10 3 22 -3 12 0 27 5 33 5 6 10 32 12 58 2 26 7 47 12 47 4
0 6 9 3 20 -3 11 -2 20 2 20 11 0 8 43 -4 56 -6 6 -17 13 -25 17 -11 4 -11 6
-2 6 8 1 10 6 5 14 -15 23 -30 96 -22 109 4 7 2 19 -4 27 -9 12 -9 13 1 7 12
-7 13 -3 15 42 1 9 6 20 12 24 6 5 6 8 -2 8 -7 0 -13 7 -13 15 0 8 -4 15 -10
15 -5 0 -10 9 -10 20 0 11 -3 20 -8 20 -4 0 -13 14 -20 30 -8 18 -18 27 -25
23 -7 -3 -9 -3 -5 1 3 4 0 23 -8 42 -8 19 -12 39 -9 44 3 5 1 11 -5 15 -6 4
-7 11 -4 17 4 7 2 8 -4 4 -12 -7 -16 13 -13 66 1 31 -42 114 -58 111 -5 -2
-13 6 -16 17 -4 11 -11 20 -16 20 -5 0 -9 7 -9 15 0 8 -4 15 -10 15 -5 0 -10
8 -10 18 0 10 -7 27 -15 38 -8 12 -11 24 -8 28 3 3 0 6 -8 6 -11 0 -11 2 1 10
8 5 10 10 4 10 -7 0 -15 7 -18 16 -4 10 -2 13 7 8 9 -6 9 -5 0 8 -7 8 -10 17
-7 21 3 3 -4 8 -15 12 -12 3 -21 13 -21 21 0 8 4 13 8 10 5 -3 9 1 9 9 0 8 -3
15 -7 15 -4 0 -13 19 -20 43 -21 68 -34 96 -42 91 -7 -4 -13 35 -9 59 0 4 -4
7 -10 7 -6 0 -9 9 -6 20 3 11 -1 27 -10 35 -10 10 -11 15 -2 15 8 0 6 6 -4 18
-10 10 -14 22 -10 25 3 4 -2 7 -13 7 -16 0 -17 2 -4 10 13 8 12 10 -5 11 -11
1 -22 1 -25 1 -3 0 -7 9 -7 21 -1 12 -7 23 -13 25 -5 2 -10 12 -10 22 0 14
-24 34 -37 31 -2 -1 -12 8 -23 19 -12 12 -25 18 -30 15 -5 -3 -14 4 -20 15 -6
11 -15 18 -20 15 -4 -3 -10 0 -12 6 -3 9 -9 9 -25 1 -16 -9 -24 -8 -33 3 -7 9
-15 13 -17 11 -7 -7 -63 15 -63 25 0 5 -7 9 -16 9 -8 0 -12 5 -9 10 3 6 -1 10
-10 10 -32 0 -66 44 -68 88 -1 23 -5 42 -9 42 -4 0 -5 7 -2 15 4 8 1 15 -6 15
-6 0 -18 6 -25 13 -35 30 -43 35 -51 29 -4 -4 -4 -2 0 5 3 6 -5 23 -18 36 -14
14 -22 28 -19 31 3 3 -2 8 -11 12 -9 3 -16 12 -16 20 0 8 -3 14 -8 14 -4 0
-12 10 -17 23 -6 12 -16 21 -23 20 -7 -2 -12 4 -12 13 0 10 -6 14 -14 11 -9
-4 -17 2 -21 14 -5 14 -13 19 -25 16 -20 -5 -47 34 -36 52 4 6 0 11 -8 11 -9
0 -16 4 -16 9 0 5 -9 11 -20 14 -12 3 -18 11 -15 19 7 18 -27 58 -49 58 -10 0
-14 5 -11 10 3 6 -1 10 -9 10 -9 0 -16 4 -16 9 0 5 -9 12 -20 16 -11 3 -19 12
-17 18 1 7 -4 11 -10 10 -7 -2 -13 4 -13 13 0 8 -4 12 -10 9 -5 -3 -10 -1 -10
5 0 6 -4 8 -10 5 -5 -3 -10 -1 -10 6 0 7 -3 9 -7 6 -3 -4 -15 1 -26 10 -15 13
-18 14 -13 3 4 -8 -1 -5 -11 6 -17 21 -59 40 -75 36 -5 -1 -8 3 -8 9 0 5 -4 8
-9 5 -5 -3 -11 1 -15 9 -3 8 -12 12 -21 9 -8 -3 -15 -1 -15 6 0 6 -4 8 -10 5
-5 -3 -10 -1 -10 5 0 6 -5 8 -11 4 -8 -5 -10 1 -7 20 5 23 3 27 -13 23 -11 -3
-19 -1 -19 5 0 6 -10 3 -23 -5 -13 -8 -29 -12 -35 -8 -7 4 -25 6 -42 5 -16 -1
-30 2 -30 6 0 12 -41 17 -73 9 -15 -4 -25 -4 -22 1 6 10 -19 20 -64 26 -18 2
-43 10 -55 17 -27 15 -76 17 -76 3 0 -7 -3 -6 -8 1 -11 17 -111 17 -139 0 -6
-4 -14 -3 -18 2 -6 11 -45 10 -45 -1 0 -4 -15 -1 -32 6 -21 8 -43 10 -60 5z"/>
</g>
</svg>
