<svg xmlns="http://www.w3.org/2000/svg" viewBox="0 0 414.07 535.48"><defs><style>.cls-1{fill:#fff;}.cls-2{stroke:#fff;}.cls-2,.cls-3{stroke-miterlimit:10;}.cls-3{stroke:#000;}.cls-4{fill:#232323;}.cls-5{fill:#4d4d4d;}.cls-6{fill:#666;}.cls-7{fill:#918b8b;}.cls-8{fill:#333;}</style></defs><title>Cube Heads</title><g id="LEFT_ONE" data-name="LEFT ONE"><path class="cls-1" d="M588.9,49.88v83.25L632,155.62l6.6-73Z" transform="translate(-485.77 -15.61)"/><path d="M511.47,95.54l.07,73.59,77.36-36q-.84-40.08-1.7-80.16Z" transform="translate(-485.77 -15.61)"/><path class="cls-1" d="M511.47,95.54l.68,37c.13,6.13.17,12.23.25,18.33l.21,18.29-1.52-1L530.35,159l19.29-9.1,38.63-18.1-.86,1.39-.8-40.08-.32-20L586,53l1.8,1L549.87,74.8Zm0,0,18.6-10.9L548.8,73.71l37.81-21.79,1.74-1,.06,2L589,73l.52,20,.91,40.07,0,1-.89.41-38.72,17.9-19.39,8.9L512,170.1l-1.54.69,0-1.66.17-18.51c.07-6.16.1-12.33.21-18.46Z" transform="translate(-485.77 -15.61)"/><path class="cls-2" d="M581,185.66l49.7-29.94L588.9,133.57l-76.75,37.75L553,180.85C552.76,181.09,581,185.66,581,185.66Z" transform="translate(-485.77 -15.61)"/><path class="cls-1" d="M524.66,132.06a16.55,16.55,0,0,1-1.24-8.5,11.23,11.23,0,0,1,4.33-7.79,7.34,7.34,0,0,1,8.91.23,12.74,12.74,0,0,1,4.36,7.43c-1.41-2.44-3-4.79-5.24-6.15a6.78,6.78,0,0,0-3.52-1,6,6,0,0,0-3.37,1.14,10.77,10.77,0,0,0-3.94,6.43,20.57,20.57,0,0,0-.5,4A37.21,37.21,0,0,0,524.66,132.06Z" transform="translate(-485.77 -15.61)"/><path class="cls-1" d="M553.38,116.51a13.3,13.3,0,0,1,1-10,15.24,15.24,0,0,1,7.62-7,13.26,13.26,0,0,1,5.22-1,9.32,9.32,0,0,1,5.13,1.59,9.21,9.21,0,0,1,3.28,4.1,13.22,13.22,0,0,1,.92,5,17.5,17.5,0,0,0-1.8-4.53,8.9,8.9,0,0,0-3.23-3.22,9.55,9.55,0,0,0-2.08-.81,9.84,9.84,0,0,0-2.24-.21,11.9,11.9,0,0,0-4.44,1,15.29,15.29,0,0,0-7,5.9A15.65,15.65,0,0,0,553.38,116.51Z" transform="translate(-485.77 -15.61)"/><path class="cls-3" d="M529.39,189.11l25.17-20.72,40-7.4q36.26,174.67,72.53,349.36L496.82,523.67Q513.11,356.39,529.39,189.11Z" transform="translate(-485.77 -15.61)"/><path class="cls-4" d="M594.53,161l19.24,5.92,68.1,334.56-14.81,8.88Q630.79,335.67,594.53,161Z" transform="translate(-485.77 -15.61)"/></g><g id="RIGHT_ONE" data-name="RIGHT ONE"><path d="M898.83,96.37,898.75,170l-77.36-36q.86-40.08,1.7-80.15Z" transform="translate(-485.77 -15.61)"/><path class="cls-1" d="M898.83,96.37l.6,36.62c.12,6.13.14,12.29.21,18.45l.18,18.51v1.67l-1.53-.7-19.43-8.81-19.39-8.9L820.76,135.3l-.88-.4,0-1,.9-40.08.53-20,.55-20,.06-2,1.74,1L861.5,74.53l18.72,10.94Zm0,0L860.42,75.63,822.5,54.85l1.8-1-.29,20-.33,20-.8,40.08L822,132.6l38.63,18.1,19.3,9.1L899.2,169l-1.52,1,.21-18.28c.08-6.1.12-12.2.25-18.34Z" transform="translate(-485.77 -15.61)"/><path class="cls-2" d="M829.27,186.49l-49.7-29.94,41.82-22.16,76.75,37.76-40.88,9.52C857.54,181.91,829.27,186.49,829.27,186.49Z" transform="translate(-485.77 -15.61)"/><path class="cls-1" d="M882.57,131.26c-1.13-1.66-2.1-3.38-3.07-5.09s-1.86-3.47-2.72-5.23c-1.72-3.53-3.29-7.11-4.74-10.75l3.72-1.47q1.08,2.72,2.07,5.48c.66,1.85,1.29,3.7,1.87,5.57s1.1,3.77,1.62,5.67S882.26,129.28,882.57,131.26Zm0,0c-1.13-1.66-2.1-3.38-3.08-5.09s-1.86-3.47-2.71-5.23-1.68-3.54-2.47-5.33-1.54-3.6-2.27-5.42a2,2,0,1,1,3.71-1.48h0c1.44,3.63,2.76,7.31,3.93,11.06.59,1.87,1.11,3.77,1.62,5.67S882.26,129.28,882.57,131.26Z" transform="translate(-485.77 -15.61)"/><path class="cls-1" d="M867.19,126.58c1.6-1.33,3.29-2.5,5-3.67s3.4-2.27,5.14-3.33q5.22-3.19,10.64-6l1.84,3.56c-1.81.93-3.63,1.84-5.47,2.71s-3.69,1.71-5.56,2.51-3.78,1.54-5.69,2.28S869.2,126,867.19,126.58Zm0,0c1.6-1.33,3.29-2.5,5-3.68s3.4-2.26,5.14-3.32,3.5-2.09,5.27-3.09,3.57-2,5.37-2.9a2,2,0,0,1,2.7.86,2,2,0,0,1-.85,2.69h0c-3.61,1.86-7.29,3.61-11,5.22-1.87.8-3.78,1.54-5.68,2.27S869.2,126,867.19,126.58Z" transform="translate(-485.77 -15.61)"/><path class="cls-1" d="M852.25,116.66c-1.42-1.7-2.73-3.47-4-5.24s-2.57-3.57-3.79-5.39-2.43-3.66-3.65-5.49L837.27,95l2.56-1.56c1.13,1.88,2.26,3.76,3.36,5.66s2.19,3.8,3.21,5.75,2.06,3.88,3.06,5.84S851.4,114.61,852.25,116.66Zm0,0c-1.42-1.7-2.73-3.47-4-5.24s-2.57-3.57-3.8-5.39-2.43-3.66-3.64-5.49-2.35-3.71-3.49-5.58h0a1.5,1.5,0,1,1,2.55-1.57l0,0,3.35,5.66c1.08,1.92,2.19,3.81,3.22,5.75s2.06,3.88,3.05,5.85S851.4,114.61,852.25,116.66Z" transform="translate(-485.77 -15.61)"/><path class="cls-1" d="M834.36,114.39c1.62-1.64,3.32-3.17,5-4.71s3.44-3,5.2-4.47,3.54-2.88,5.31-4.32l5.41-4.19,1.81,2.4c-1.82,1.37-3.65,2.73-5.51,4.06s-3.71,2.66-5.61,3.92-3.8,2.54-5.73,3.77S836.38,113.28,834.36,114.39Zm0,0c1.62-1.64,3.32-3.17,5-4.71s3.44-3,5.2-4.47,3.54-2.88,5.31-4.32,3.6-2.81,5.41-4.19h0a1.5,1.5,0,1,1,1.81,2.39l0,0-5.51,4.05c-1.87,1.31-3.71,2.66-5.62,3.92s-3.79,2.54-5.72,3.78S836.38,113.28,834.36,114.39Z" transform="translate(-485.77 -15.61)"/><path class="cls-1" d="M821.39,50.7V134l-43.11,22.49q-3.3-36.49-6.61-73Z" transform="translate(-485.77 -15.61)"/><path class="cls-4" d="M814.36,157.29l-20.73,5.92-60.69,346.4Z" transform="translate(-485.77 -15.61)"/><path class="cls-3" d="M869.87,189.11l-25.16-20.72-30.35-11.1Q773.28,333.81,732.2,510.35l164.32,16.28Q883.2,357.88,869.87,189.11Z" transform="translate(-485.77 -15.61)"/></g><g id="MIDDLE_ONE" data-name="MIDDLE ONE"><path d="M639.58,19.86l131.25-2.95q-1.76,50-3.52,99.93l-122.87,4.44Z" transform="translate(-485.77 -15.61)"/><path class="cls-1" d="M639.58,19.86l65.3-2.2,65.92-2,1.34,0,0,1.35-3.3,99.93,0,1.39-1.39,0-61.44,2.07-30.72,1-30.73.9-1.05,0,0-1-1-25.53-1-25.46Zm0,0,3,50.94,1.46,25.25,1.41,25.18-1.1-1,30.71-1.32,30.71-1.19,61.43-2.36-1.44,1.44,3.75-99.92,1.3,1.31-65.32.94Z" transform="translate(-485.77 -15.61)"/><path d="M769.48,119l-32,14.9-68.09-.1-20.31-9.6Z" transform="translate(-485.77 -15.61)"/><path class="cls-1" d="M769.48,119c-5.21,2.45-10.44,5-15.74,7.58s-10.66,5.25-16.06,7.8l-.1,0h-.12l-34.05.26-34,.06h-.21l-.19-.09-20.33-9.56L645,123.33l4.07-.16L679.4,122c10.12-.38,20.28-.76,30.33-1l30.06-.95C749.71,119.71,759.66,119.34,769.48,119Zm0,0c-10.24.49-20.37,1-30.51,1.55l-30.15,1.66c-10,.59-19.93,1.07-29.88,1.57l-29.83,1.42.38-1.89,20.28,9.64-.4-.09,34,.16,34,.35-.23,0c5.28-2.41,10.6-4.72,16-7.1S764,121.47,769.48,119Z" transform="translate(-485.77 -15.61)"/><path class="cls-1" d="M659.92,53.46c2.59,1,5.11,2.09,7.63,3.2l3.76,1.71L675,60.14c2.48,1.19,4.94,2.42,7.38,3.67s4.89,2.5,7.29,3.84l0,0a1.46,1.46,0,0,1,.57,2,1.4,1.4,0,0,1-.73.65c-2.21.9-4.42,1.85-6.65,2.7s-4.47,1.75-6.72,2.56-4.51,1.63-6.78,2.4-4.57,1.51-6.89,2.16c2.09-1.21,4.21-2.33,6.35-3.43s4.28-2.18,6.45-3.2,4.33-2,6.51-3,4.39-1.93,6.58-2.89l-.12,2.67c-2.45-1.25-4.83-2.61-7.25-3.9s-4.79-2.69-7.17-4.08l-3.54-2.1L666.83,58C664.51,56.54,662.18,55.07,659.92,53.46Z" transform="translate(-485.77 -15.61)"/><path class="cls-1" d="M748.25,53.46c-2.25,1.61-4.58,3.08-6.91,4.55l-3.51,2.17-3.55,2.1c-2.37,1.39-4.76,2.74-7.16,4.08s-4.81,2.65-7.25,3.9l-.12-2.67c2.19,1,4.4,1.88,6.57,2.89s4.36,2,6.52,3,4.31,2.11,6.45,3.2,4.26,2.22,6.34,3.43c-2.32-.65-4.6-1.4-6.88-2.16s-4.54-1.55-6.79-2.4-4.48-1.68-6.71-2.56-4.44-1.8-6.66-2.7a1.48,1.48,0,0,1-.81-1.92,1.55,1.55,0,0,1,.65-.73l0,0c2.4-1.34,4.86-2.56,7.29-3.84s4.91-2.48,7.38-3.67l3.72-1.77,3.76-1.71C743.14,55.55,745.66,54.44,748.25,53.46Z" transform="translate(-485.77 -15.61)"/><path class="cls-3" d="M497.88,522.45l198.37,28.13,201.33-25.16Q829.15,330.75,760.74,136.09l-55.61-10.37-59.56,12.5Z" transform="translate(-485.77 -15.61)"/></g><g id="CUBE"><path class="cls-5" d="M583.61,355.64a95,95,0,0,0,62.17-11.84q-3-7.41-5.92-14.81a90.94,90.94,0,0,1-53.29,17.77c-31.05.11-52-16-57.73-20.73A94.79,94.79,0,0,0,583.61,355.64Z" transform="translate(-485.77 -15.61)"/><path class="cls-5" d="M639.86,249.05c-10.53-9.35-25.2-11.91-37.1-6.5-14.84,6.75-23,24.83-17.92,42.35A36.45,36.45,0,0,1,573.41,265c-.64-3.26-2.62-13.32,2.88-21.95,9.72-15.24,33.74-11.8,35.25-11.57C627.78,234.06,637.29,245.67,639.86,249.05Z" transform="translate(-485.77 -15.61)"/><path class="cls-6" d="M639.86,329V275.7q3,34.05,5.92,68.1Q642.82,336.39,639.86,329Z" transform="translate(-485.77 -15.61)"/><path class="cls-1" d="M639.86,216.49a35.31,35.31,0,0,0-9.28-5.82,35,35,0,0,0-10.13-2.62l-7.51,10.5,2.63-12c-10.07-2.35-27.27-4.59-45.28,2.54-31.17,12.34-51.77,47.54-51.82,88.83L551,303.83l-30.49,7A50.53,50.53,0,0,0,528.84,326c18.32,22.9,53.58,24,75.49,19.25A92.6,92.6,0,0,0,639.86,329V275.7c-4.42,5.37-13.46,14.48-26.64,16.28a32.53,32.53,0,0,1-4.54.32l-4.35,8.57V292c-13.06-.34-24.23-8.13-28.12-19.24-4-11.51.87-23.37,7.4-29.61,12.07-11.53,36.49-10.89,56.25,5.92Z" transform="translate(-485.77 -15.61)"/><path class="cls-5" d="M676.87,268.3l5.92,4.44a156.07,156.07,0,0,0-3,47.37,6.82,6.82,0,0,1-5.92-1.48,203.24,203.24,0,0,1,3-50.33Z" transform="translate(-485.77 -15.61)"/><path class="cls-6" d="M699.08,339.36c-3.1,3.95-4.12,4.63-4.44,4.44-1.27-.76,7.81-15,13.32-34.05a125.74,125.74,0,0,0,4.44-23.69c1,1,2,2,3,3A274.15,274.15,0,0,1,705,324.55C703.1,329.73,701.11,334.67,699.08,339.36Z" transform="translate(-485.77 -15.61)"/><path class="cls-1" d="M653.19,266.82l4.44-1.48q-.11,10.37-.19,20.74l3.15-20.8a31.25,31.25,0,0,1,16.28,3,246.31,246.31,0,0,0-3,29.61c-.27,6.78-.24,13.21,0,19.24a4.74,4.74,0,0,0,4.44,3,4.46,4.46,0,0,0,3-1.48c-.47,13.41-.27,16.27,0,16.28.43,0,.29-7,3-17.76q2.33-9.33,4.44-19.24,1.62-7.55,3-14.81a38.11,38.11,0,0,1,20.73,3,153.36,153.36,0,0,1-17.76,57.74,81.25,81.25,0,0,1-41.45-5.92c-.83-9.72-1.37-20.1-1.48-31.09C651.55,292.45,652.15,279.07,653.19,266.82Z" transform="translate(-485.77 -15.61)"/><path class="cls-5" d="M869.13,252l-75.5,25.17,69.58-17.77Z" transform="translate(-485.77 -15.61)"/><path class="cls-6" d="M864.69,305.32,869.13,252l-5.92,7.4Q863.95,282.38,864.69,305.32Z" transform="translate(-485.77 -15.61)"/><path class="cls-6" d="M857.29,334.93,841,339.37l-3-4.44Z" transform="translate(-485.77 -15.61)"/><path class="cls-7" d="M838,334.93l3,4.44q-3,5.92-5.92,11.84Q836.57,343.06,838,334.93Z" transform="translate(-485.77 -15.61)"/><path class="cls-1" d="M863.4,259.42q-16.15,3.57-32.57,7.4-18.74,4.37-37,8.88l7.8,43.54q3,14,7,29,2.86,10.69,5.92,20.72l50.34,3,8.88-26.64L856.4,348q-1.68,4.57-3.37,9.17c-.49-2.47-1-4.93-1.48-7.4l-16.28,1.48q1.49-8.15,3-16.29h19.24q-.74-8.13-1.48-16.28l-22.2,3-14.8-3,13.32-3q.74-5.93,1.48-11.84l31.09,1.48Q864.13,282.36,863.4,259.42Z" transform="translate(-485.77 -15.61)"/><path class="cls-7" d="M758.1,333.45l16.29,5.92a12.63,12.63,0,0,0-19.25-11.84Q756.63,330.49,758.1,333.45Z" transform="translate(-485.77 -15.61)"/><path class="cls-6" d="M778.83,272.75l-4.44-11.84a12,12,0,0,1,7.4-3c5.65-.07,11.23,4.65,13.32,11.84Z" transform="translate(-485.77 -15.61)"/><path class="cls-8" d="M758.29,333.43l-8.88,13.33q3-9.63,5.92-19.25C756.32,329.49,757.3,331.46,758.29,333.43Z" transform="translate(-485.77 -15.61)"/><path class="cls-7" d="M765.69,289l13.14-16.27-4.26-11.85Z" transform="translate(-485.77 -15.61)"/><path class="cls-1" d="M826.39,271.26c-2.83-17.76-13.54-33.32-28.71-43.3-11.3,5-35,14.4-71.59,28.52q-11.3,45.15-22.57,90.28l13.55,6.77,11.43-26-5.73,28.86,28.12,14.05c23.21,7.23,42.93-.12,47.37-11.84.58-1.53,2.92-8.48-3-19.24l-23.69-14.81,26.65,10.36C819.18,320,830.21,295.23,826.39,271.26Zm-51.82,71.06c-.3,4.09-4.14,7.42-7.4,8.88-5.66,2.53-12.83.84-17.76-4.44q3-9.63,5.92-19.25C767.54,328.66,775,336.19,774.57,342.32Zm13.33-54.78c-2.15,3.1-4.55,6.56-8.88,7.41-7.07,1.38-12.91-5.43-13.33-5.93l8.88-28.12c7.23-1.75,14.4-.14,17.77,4.44C798,273,789.83,284.76,787.9,287.54Z" transform="translate(-485.77 -15.61)"/><path class="cls-1" d="M795,226.31a70.78,70.78,0,0,0-32.31-9.82q-1.47,8.88-3,17.76l-3.86-17.75-21.3,5.91-6.42,25.67C761,237,783.15,229.81,795,226.31Z" transform="translate(-485.77 -15.61)"/></g><g id="HEADS"><path class="cls-7" d="M839.52,505.17H878l8.89-8.88Z" transform="translate(-485.77 -15.61)"/><path class="cls-1" d="M817.5,386.73l17.77-13.33s2.11,5.53,2.11,5.55l9.73,25.54-11.84,17.77,56.25,10.36-4.44,63.65-47.37,8.89-19.24-14.81q1.47-16.28,3-32.57h25.16q-1.47,8.14-3,16.29h14.81q.73-9.63,1.48-19.25L817.5,440Z" transform="translate(-485.77 -15.61)"/><path class="cls-1" d="M882.64,388.21l-42.93-11.85L850.07,406l5.92,1.48q-1.47,3.71-3,7.4l7.41,5.93,20.72-3Q881.9,403,882.64,388.21Z" transform="translate(-485.77 -15.61)"/><path class="cls-7" d="M841,423.75q3-9.62,5.93-19.24l-11.85,17.76Z" transform="translate(-485.77 -15.61)"/><path class="cls-7" d="M848.41,457.8l4.44,16.28h-7.4Q846.92,465.93,848.41,457.8Z" transform="translate(-485.77 -15.61)"/><path class="cls-7" d="M882.45,388.22l4.45,4.44q-3,12.58-5.93,25.17Q881.72,403,882.45,388.22Z" transform="translate(-485.77 -15.61)"/><path class="cls-1" d="M807.14,429.66a158.15,158.15,0,0,0-32.57-50.33l-25.16-4.45-9,10.08,10.44,19.53-13.32-16.28-11.85,13.32q3,42.2,5.92,84.38c6.52,2.08,13.43,4.07,20.73,5.92,9.88,2.5,19.29,4.43,28.13,5.92a82.58,82.58,0,0,0,28.12-22.2Q807.89,452.6,807.14,429.66ZM795.3,475.55c-3,5.79-9.32,7.19-10.36,7.4l-7.4-10.36,13.32-14.81c.85.71,6,5.11,5.92,11.85A13.28,13.28,0,0,1,795.3,475.55Z" transform="translate(-485.77 -15.61)"/><path class="cls-7" d="M783.27,472.6q3.71-7.39,7.4-14.8l-13.32,14.8Z" transform="translate(-485.77 -15.61)"/><path class="cls-5" d="M777.35,472.6h5.92c.49,3.46,1,6.91,1.48,10.36Z" transform="translate(-485.77 -15.61)"/><path class="cls-6" d="M515.33,488.89l5.92-4.45q3.71-28.12,7.4-56.25-3.36,17.4-7.4,35.53Q518.37,476.54,515.33,488.89Z" transform="translate(-485.77 -15.61)"/><path class="cls-1" d="M485.91,352.68l51.81-1.48c-.92,20.06-2.7,37.12-4.44,50.33a637.87,637.87,0,0,1-11.85,63.66c-2.28,9.81-4.38,17.95-5.92,23.68H496.27a713.14,713.14,0,0,1-8.88-74C485.89,392.71,485.53,371.91,485.91,352.68Z" transform="translate(-485.77 -15.61)"/><path class="cls-1" d="M536.24,407.45q-3.71,18.51-7.4,37h13.32A127.47,127.47,0,0,0,548.08,480c1.36,4.26,2.87,8.21,4.44,11.84h14.81l4.44-72.53q-3-20-5.93-40H546.6v29.6Z" transform="translate(-485.77 -15.61)"/><path class="cls-6" d="M567.14,491.85l8.88-7.41-4.44-62.17Z" transform="translate(-485.77 -15.61)"/><path class="cls-1" d="M570.29,370.44l32.56-11.84,32.57-3q1.49,24.42,3,48.85l-31,1.24q-3.83-11.72-7.63-23.43L604.15,406l-2.78,0q1.49,6.66,3,13.33l32.57-4.45v16.29l-25.16,5.92q.74,5.93,1.48,11.84l29.6-8.88a206.41,206.41,0,0,1-1.48,29.61c-.77,6.34-1.8,12.27-3,17.76l-50.33-1.48-8.19-35L592.31,446l-13.53.32q-3.51-15-7-29.95Q571,393.4,570.29,370.44Z" transform="translate(-485.77 -15.61)"/><path class="cls-6" d="M611.55,437.07l5.92,7.4L613,448.92Q612.29,443,611.55,437.07Z" transform="translate(-485.77 -15.61)"/><path class="cls-5" d="M617.47,444.47,642.64,440,613,448.92Z" transform="translate(-485.77 -15.61)"/><path class="cls-5" d="M664.84,485.92l8.88-4.44V465.2Z" transform="translate(-485.77 -15.61)"/><path class="cls-5" d="M676.69,426.71q5.17-8.15,10.36-16.28l-5.92-10.37Z" transform="translate(-485.77 -15.61)"/><path class="cls-5" d="M718.14,448.92q1.22-.15,5.92,28.12L719.62,483Q716.8,449.08,718.14,448.92Z" transform="translate(-485.77 -15.61)"/><path class="cls-1" d="M716.84,445.94l-4.44-48.85A71.65,71.65,0,0,0,681.31,369a52.68,52.68,0,0,0-26.64,17.77V488.87l10.36-3,8.88-20.72,19.25-10.37,22.78-8.54Zm-29.79-14.79a26.84,26.84,0,0,1-11.66,0c-.06-.49-.12-1-.19-1.47l-8.88-1.48,9.85-1.17q2.58-13.49,5.14-27,6.66,14.07,13.33,28.13A26.66,26.66,0,0,1,687.05,431.15Z" transform="translate(-485.77 -15.61)"/><path class="cls-1" d="M703.52,484.43,719.8,483q-.74-17-1.48-34.05l-23.68,8.88Z" transform="translate(-485.77 -15.61)"/></g></svg>