<svg id="Layer_3" data-name="Layer 3" xmlns="http://www.w3.org/2000/svg" viewBox="0 0 595.28 841.89"><defs><style>.cls-1{fill:#fff;}</style></defs><title>sadrMAINWHITE</title><path class="cls-1" d="M431.52,437.64l-42.07-45.57a9.35,9.35,0,0,0-12.93-.78L335.73,426a4.71,4.71,0,0,1-3,1.09H303.48A7,7,0,0,0,299,428.7l-15.1,12.67a2.34,2.34,0,0,0,1.51,4.13h54.21a4.69,4.69,0,0,0,3-1.09l37.65-32a2.34,2.34,0,0,1,3.17.12L396,425.11a1.17,1.17,0,0,1-.89,1.92H375.66a7,7,0,0,0-4.51,1.64l-15.1,12.67a2.34,2.34,0,0,0,1.5,4.13l70.54,0A4.67,4.67,0,0,0,431.52,437.64Z"/><path class="cls-1" d="M238.93,392.27a9.51,9.51,0,0,0-13.07-1.13l-62.5,50.29a2.27,2.27,0,0,0,1.48,4l21.89,0a4.8,4.8,0,0,0,3-1.07l48.08-39.38A8.88,8.88,0,0,0,238.93,392.27Z"/><path class="cls-1" d="M284.7,427.06H271.22a4.69,4.69,0,0,1-3.56-1.64q-8.87-10.41-17.72-20.81a2.33,2.33,0,0,0-3.28-.28l-10.85,9.11a2.33,2.33,0,0,0-.29,3.29l7,8.38a1.17,1.17,0,0,1-.9,1.92H223a9.34,9.34,0,0,0-6,2.19l-14.45,12.12a2.34,2.34,0,0,0,1.5,4.13l63.4,0a4.74,4.74,0,0,0,3-1.09l15.74-13.22A2.34,2.34,0,0,0,284.7,427.06Z"/></svg>