<svg xmlns="http://www.w3.org/2000/svg" viewBox="0 0 256 800" width="256" height="800"><style>tspan { white-space:pre }.shp0 { fill: #ffffff } </style><g ><path fill-rule="evenodd" class="shp0" d="M206.88 345.16C207 347.32 207.03 349.49 206.97 351.65C206.92 353.81 206.77 355.97 206.55 358.13C206.32 360.28 206.01 362.42 205.61 364.55C205.21 366.67 204.73 368.78 204.16 370.87C196.64 397.39 177.77 412.98 151.08 418.86C150.16 419.05 149.23 419.21 148.31 419.35C147.38 419.49 146.45 419.61 145.52 419.7C144.58 419.8 143.65 419.86 142.71 419.91C141.77 419.95 140.84 419.97 139.9 419.96C117.32 420.05 71.12 419.94 70.43 419.9C70.39 419.9 70.34 419.89 70.3 419.88C70.25 419.87 70.21 419.85 70.17 419.83C70.12 419.82 70.08 419.79 70.05 419.76C70.01 419.74 69.97 419.71 69.94 419.67C69.91 419.64 69.88 419.6 69.86 419.56C69.83 419.53 69.81 419.49 69.8 419.44C69.78 419.4 69.77 419.36 69.76 419.31C69.75 419.27 69.74 419.22 69.74 419.17C69.74 419.14 69.74 379.59 69.74 379.57C69.74 379.54 69.73 379.52 69.73 379.49C69.73 379.47 69.72 379.45 69.71 379.42C69.71 379.4 69.7 379.38 69.69 379.36C69.68 379.34 69.67 379.31 69.66 379.29C69.65 379.27 69.63 379.25 69.62 379.23C69.61 379.21 69.59 379.19 69.58 379.17C69.56 379.16 69.55 379.14 69.53 379.12C69.51 379.1 69.5 379.09 69.48 379.07C69.46 379.06 69.44 379.04 69.42 379.03C69.4 379.02 69.38 379 69.36 378.99C69.34 378.98 69.32 378.97 69.29 378.96C69.27 378.95 69.25 378.94 69.23 378.94C69.2 378.93 69.18 378.92 69.16 378.92C69.13 378.91 69.11 378.91 69.09 378.91C69.06 378.91 69.04 378.91 69.01 378.9C68.98 378.9 53.67 378.9 53.64 378.9C53.61 378.89 53.58 378.89 53.55 378.88C53.52 378.87 53.49 378.86 53.46 378.85C53.43 378.84 53.41 378.83 53.38 378.82C53.35 378.8 53.33 378.79 53.31 378.77C53.28 378.75 53.26 378.73 53.24 378.71C53.21 378.69 53.19 378.67 53.17 378.65C53.15 378.62 53.14 378.6 53.12 378.58C53.1 378.55 53.09 378.52 53.07 378.5C53.06 378.47 53.05 378.44 53.04 378.42C53.03 378.39 53.02 378.36 53.02 378.33C53.01 378.3 53 378.27 53 378.24C53 378.21 53 378.18 53 378.15C53 378.12 53 378.09 53.01 378.06C53.01 378.03 53.02 378 53.03 377.97C53.03 377.94 53.04 377.92 53.05 377.89C54.78 373.74 69.87 336.48 76.22 321.83C87.48 295.81 117.33 279.06 145.4 282.43C147.8 282.7 150.18 283.09 152.54 283.61C154.9 284.12 157.23 284.75 159.52 285.5C161.82 286.25 164.07 287.11 166.28 288.09C168.49 289.07 170.64 290.16 172.74 291.35C172.76 291.37 172.79 291.38 172.81 291.4C172.84 291.42 172.86 291.44 172.88 291.46C172.9 291.48 172.92 291.5 172.94 291.52C172.96 291.54 172.98 291.57 172.99 291.59C173.01 291.62 173.02 291.64 173.03 291.67C173.05 291.69 173.06 291.72 173.07 291.75C173.08 291.78 173.09 291.8 173.09 291.83C173.1 291.86 173.1 291.89 173.11 291.92C173.11 291.95 173.11 291.98 173.11 292.01C173.11 292.03 173.11 292.06 173.1 292.09C173.1 292.12 173.09 292.15 173.09 292.18C173.08 292.21 173.07 292.23 173.06 292.26C173.05 292.29 173.04 292.32 173.02 292.34C173.01 292.37 172.99 292.39 172.98 292.42C172.96 292.44 172.94 292.46 172.92 292.48C172.9 292.51 172.88 292.53 172.86 292.55C172.47 292.91 172.07 293.27 171.67 293.62C171.27 293.97 170.86 294.32 170.45 294.66C170.04 295 169.63 295.33 169.21 295.66C168.79 295.99 168.36 296.32 167.94 296.64C167.39 297.02 166.13 296.73 165.37 296.37C161.44 294.4 157.31 292.86 153.05 291.8C148.79 290.73 144.43 290.13 140.04 290.02C135.65 289.91 131.26 290.29 126.95 291.14C122.64 291.99 118.44 293.32 114.42 295.09C110.83 296.58 107.39 298.41 104.16 300.57C100.93 302.74 97.93 305.21 95.19 307.97C92.45 310.73 89.99 313.75 87.85 317C85.71 320.24 83.89 323.69 82.44 327.29C76.74 340.78 65.24 369.06 64.97 369.84C64.96 369.87 64.95 369.9 64.95 369.93C64.94 369.96 64.93 369.98 64.93 370.01C64.93 370.04 64.93 370.07 64.93 370.1C64.93 370.13 64.93 370.16 64.94 370.19C64.94 370.22 64.94 370.25 64.95 370.27C64.96 370.3 64.97 370.33 64.98 370.36C64.99 370.38 65 370.41 65.02 370.44C65.03 370.46 65.05 370.49 65.06 370.51C65.08 370.53 65.1 370.56 65.12 370.58C65.14 370.6 65.16 370.62 65.18 370.64C65.2 370.66 65.22 370.68 65.25 370.69C65.27 370.71 65.3 370.72 65.32 370.74C65.35 370.75 65.37 370.76 65.4 370.77C65.43 370.78 65.46 370.79 65.49 370.8C65.51 370.81 65.54 370.81 65.57 370.82C65.6 370.82 65.63 370.82 65.66 370.82C65.68 370.82 76.91 370.82 76.93 370.82C76.96 370.83 76.98 370.83 77 370.84C77.03 370.84 77.05 370.85 77.07 370.85C77.09 370.86 77.12 370.87 77.14 370.88C77.16 370.89 77.18 370.9 77.2 370.91C77.22 370.92 77.24 370.93 77.26 370.94C77.28 370.96 77.3 370.97 77.32 370.99C77.34 371 77.36 371.02 77.37 371.04C77.39 371.05 77.41 371.07 77.42 371.09C77.44 371.11 77.45 371.13 77.47 371.15C77.48 371.17 77.49 371.19 77.5 371.21C77.51 371.23 77.52 371.25 77.53 371.27C77.54 371.3 77.55 371.32 77.56 371.34C77.56 371.36 77.57 371.39 77.57 371.41C77.58 371.43 77.58 371.46 77.58 371.48C77.59 371.51 77.59 371.53 77.59 371.55L77.59 411.4C77.59 411.5 77.61 411.59 77.64 411.68C77.68 411.77 77.73 411.85 77.8 411.92C77.87 411.98 77.95 412.04 78.04 412.08C78.13 412.11 78.22 412.13 78.32 412.13C82.21 412.13 122.15 412.21 138.45 412.11C146.53 412.1 154.53 410.48 161.97 407.34C169.42 404.2 176.17 399.62 181.82 393.84C187.48 388.07 191.93 381.23 194.91 373.72C197.89 366.21 199.35 358.18 199.19 350.1C199.17 346.77 198.86 343.46 198.28 340.18C197.7 336.9 196.85 333.68 195.73 330.55C194.61 327.42 193.23 324.38 191.61 321.48C189.98 318.58 188.12 315.81 186.03 313.22C185.9 313.05 185.76 312.89 185.62 312.73C185.48 312.56 185.33 312.41 185.18 312.25C185.03 312.1 184.87 311.95 184.72 311.81C184.56 311.66 184.39 311.52 184.23 311.38C184.16 311.36 184.09 311.34 184.02 311.34C183.95 311.33 183.88 311.34 183.81 311.36C183.74 311.37 183.67 311.4 183.61 311.43C183.55 311.47 183.49 311.52 183.44 311.57L175.54 320.16C175.49 320.22 175.44 320.28 175.41 320.35C175.38 320.43 175.36 320.5 175.35 320.58C175.34 320.66 175.34 320.74 175.36 320.82C175.38 320.89 175.41 320.97 175.45 321.04C177.22 323.94 179.28 326.97 180.89 330.22C196.31 361.29 173.4 398.44 138.88 398.45L91.85 398.45C91.76 398.45 91.66 398.43 91.57 398.4C91.48 398.36 91.4 398.31 91.33 398.24C91.27 398.17 91.21 398.09 91.18 398C91.14 397.91 91.12 397.82 91.12 397.72C91.12 396.47 91.02 365.66 91.14 351.44C91.07 345.97 91.95 340.53 93.74 335.37C95.53 330.21 98.21 325.39 101.65 321.14C105.09 316.89 109.24 313.27 113.91 310.44C118.59 307.62 123.72 305.62 129.08 304.54C131.18 304.1 133.31 303.8 135.46 303.66C137.6 303.51 139.75 303.52 141.89 303.67C144.03 303.83 146.16 304.13 148.26 304.59C150.36 305.04 152.42 305.64 154.44 306.38C155.01 306.59 155.55 306.84 156.24 307.14C156.27 307.15 156.29 307.16 156.32 307.18C156.34 307.19 156.37 307.21 156.39 307.23C156.41 307.25 156.44 307.26 156.46 307.29C156.48 307.31 156.5 307.33 156.52 307.35C156.53 307.37 156.55 307.4 156.57 307.42C156.58 307.45 156.59 307.47 156.61 307.5C156.62 307.53 156.63 307.56 156.64 307.58C156.65 307.61 156.66 307.64 156.66 307.67C156.67 307.7 156.67 307.73 156.67 307.76C156.68 307.79 156.68 307.82 156.67 307.84C156.67 307.87 156.67 307.9 156.66 307.93C156.66 307.96 156.65 307.99 156.65 308.02C156.64 308.05 156.63 308.07 156.61 308.1C156.6 308.13 156.59 308.15 156.57 308.18C156.56 308.2 156.54 308.23 156.52 308.25C156.51 308.28 156.49 308.3 156.47 308.32C156.1 308.71 155.73 309.1 155.36 309.49C154.98 309.87 154.6 310.25 154.21 310.62C153.83 311 153.43 311.36 153.03 311.72C152.64 312.08 152.23 312.44 151.82 312.79C151.6 312.9 151.36 312.98 151.12 313.04C150.88 313.11 150.63 313.15 150.38 313.16C150.13 313.18 149.88 313.17 149.63 313.14C149.38 313.11 149.13 313.06 148.9 312.98C134.72 309.66 122.05 312.41 111.29 322.49C109.34 324.3 107.58 326.3 106.05 328.47C104.52 330.63 103.21 332.96 102.16 335.39C101.11 337.83 100.31 340.37 99.78 342.98C99.26 345.58 99 348.23 99.03 350.88C98.87 361.51 99.1 382.97 99.12 383.09C99.12 383.12 99.13 383.15 99.13 383.19C99.14 383.22 99.16 383.25 99.17 383.28C99.18 383.31 99.2 383.34 99.22 383.37C99.23 383.4 99.25 383.43 99.27 383.46C99.34 383.54 99.42 383.6 99.51 383.65C99.6 383.69 99.7 383.72 99.8 383.73C99.91 383.73 100.01 383.71 100.1 383.68C100.2 383.64 100.29 383.58 100.36 383.51L183.02 299.34C183.09 299.27 183.17 299.21 183.26 299.17C183.35 299.14 183.45 299.12 183.54 299.12C183.64 299.12 183.74 299.14 183.82 299.17C183.91 299.21 184 299.27 184.06 299.34C186.72 302.08 188.82 304.09 190.7 306.29C193.04 308.99 195.16 311.87 197.04 314.91C198.93 317.94 200.56 321.12 201.93 324.42C203.31 327.72 204.41 331.12 205.24 334.59C206.07 338.07 206.62 341.6 206.88 345.16ZM168.37 376.67C168.41 376.62 168.45 376.56 168.48 376.5C168.51 376.44 168.53 376.37 168.54 376.3C168.55 376.23 168.55 376.16 168.54 376.1C168.53 376.03 168.51 375.96 168.48 375.9C168.47 375.87 168.45 375.83 168.44 375.81C168.42 375.78 168.4 375.75 168.38 375.72C168.35 375.69 168.33 375.67 168.3 375.65C168.28 375.62 168.25 375.6 168.22 375.58C168.19 375.56 168.16 375.55 168.13 375.53C168.1 375.52 168.07 375.5 168.04 375.49C168.01 375.48 167.97 375.48 167.94 375.47C167.9 375.46 167.87 375.46 167.84 375.46C161.31 375.32 135.23 375.55 121.67 375.55C121.45 375.54 121.23 375.54 121.01 375.57C120.79 375.59 120.57 375.63 120.36 375.7C120.15 375.76 119.94 375.84 119.74 375.93C119.55 376.03 119.36 376.14 119.18 376.27C114.89 380.5 110.68 384.82 106.25 389.34C106.2 389.39 106.15 389.44 106.12 389.51C106.09 389.57 106.06 389.63 106.05 389.7C106.03 389.77 106.03 389.85 106.03 389.92C106.04 389.99 106.06 390.06 106.08 390.12C106.1 390.16 106.11 390.19 106.13 390.22C106.15 390.25 106.17 390.28 106.19 390.31C106.21 390.33 106.23 390.36 106.26 390.39C106.29 390.41 106.31 390.43 106.34 390.45C106.37 390.47 106.4 390.49 106.43 390.51C106.47 390.52 106.5 390.54 106.53 390.55C106.57 390.56 106.6 390.57 106.64 390.57C106.67 390.58 106.71 390.58 106.74 390.58L106.75 390.58C117.84 390.59 128.94 390.79 140.02 390.52C142.48 390.45 144.94 390.14 147.34 389.59C149.74 389.05 152.09 388.27 154.35 387.27C156.6 386.27 158.75 385.06 160.77 383.65C162.79 382.23 164.67 380.63 166.38 378.85C166.94 378.3 167.69 377.45 168.37 376.67ZM173.72 367.43C173.76 367.43 173.79 367.43 173.82 367.43C173.86 367.42 173.89 367.42 173.92 367.41C173.95 367.4 173.99 367.39 174.02 367.38C174.05 367.36 174.08 367.35 174.11 367.33C174.13 367.32 174.16 367.3 174.19 367.28C174.21 367.25 174.24 367.23 174.26 367.21C174.28 367.18 174.3 367.16 174.32 367.13C174.34 367.1 174.36 367.07 174.37 367.04C174.65 366.49 174.91 365.94 175.17 365.38C175.42 364.82 175.66 364.26 175.88 363.69C176.11 363.12 176.32 362.54 176.52 361.96C176.72 361.38 176.91 360.8 177.08 360.21C177.23 359.68 177.37 359.14 177.49 358.61C177.61 358.07 177.72 357.53 177.81 356.98C177.91 356.44 177.99 355.89 178.05 355.34C178.12 354.79 178.17 354.24 178.2 353.69C178.2 353.67 178.2 353.64 178.2 353.62C178.2 353.6 178.2 353.57 178.19 353.55C178.19 353.52 178.19 353.5 178.18 353.48C178.17 353.45 178.17 353.43 178.16 353.41C178.15 353.38 178.14 353.36 178.13 353.34C178.12 353.32 178.11 353.29 178.09 353.27C178.08 353.25 178.07 353.23 178.05 353.21C178.04 353.19 178.02 353.18 178.01 353.16C177.99 353.14 177.97 353.12 177.95 353.11C177.93 353.09 177.91 353.08 177.89 353.06C177.87 353.05 177.85 353.04 177.83 353.02C177.81 353.01 177.79 353 177.77 352.99C177.74 352.98 177.72 352.97 177.7 352.97C177.68 352.96 177.65 352.95 177.63 352.95C177.6 352.94 177.58 352.94 177.56 352.94C177.53 352.93 177.51 352.93 177.48 352.93C173.38 352.89 154.13 352.92 144.23 352.99C143.94 353 143.66 353.03 143.38 353.09C143.11 353.14 142.83 353.22 142.57 353.33C142.3 353.43 142.05 353.55 141.8 353.7C141.56 353.84 141.33 354.01 141.11 354.19C137.18 357.83 132.64 362.31 128.66 366.18C128.55 366.28 128.48 366.41 128.45 366.55C128.42 366.69 128.44 366.84 128.49 366.97C128.54 367.11 128.63 367.22 128.75 367.31C128.87 367.39 129.01 367.43 129.16 367.44C137.02 367.59 169.58 367.45 173.74 367.44L173.72 367.43ZM176.25 344.63C176.27 344.63 176.3 344.63 176.32 344.63C176.35 344.63 176.38 344.62 176.4 344.62C176.43 344.61 176.45 344.6 176.48 344.6C176.5 344.59 176.53 344.58 176.55 344.57C176.58 344.56 176.6 344.54 176.62 344.53C176.64 344.52 176.67 344.5 176.69 344.49C176.71 344.47 176.73 344.45 176.75 344.43C176.77 344.42 176.78 344.4 176.8 344.38C176.82 344.36 176.83 344.34 176.85 344.31C176.86 344.29 176.88 344.27 176.89 344.25C176.9 344.22 176.91 344.2 176.92 344.18C176.93 344.15 176.94 344.13 176.95 344.1C176.95 344.07 176.96 344.05 176.96 344.02C176.97 344 176.97 343.97 176.97 343.94C176.97 343.92 176.97 343.89 176.97 343.87C176.97 343.84 176.97 343.81 176.97 343.79C176.73 342.28 176.4 340.78 175.96 339.32C175.53 337.85 175.01 336.41 174.39 335.01C173.78 333.61 173.07 332.26 172.28 330.95C171.48 329.64 170.6 328.39 169.65 327.19C169.63 327.18 169.61 327.16 169.6 327.14C169.58 327.12 169.56 327.11 169.54 327.09C169.52 327.08 169.5 327.07 169.48 327.05C169.46 327.04 169.44 327.03 169.41 327.02C169.37 327 169.32 326.98 169.27 326.97C169.23 326.95 169.18 326.95 169.13 326.95C169.08 326.94 169.03 326.95 168.98 326.95C168.93 326.96 168.88 326.98 168.84 326.99C168.81 327 168.79 327.01 168.77 327.02C168.75 327.03 168.73 327.05 168.71 327.06C168.69 327.07 168.67 327.09 168.65 327.1C168.63 327.12 168.61 327.13 168.59 327.15L151.96 343.38C151.91 343.43 151.87 343.48 151.83 343.55C151.8 343.61 151.77 343.68 151.76 343.75C151.74 343.82 151.74 343.89 151.74 343.96C151.75 344.04 151.76 344.11 151.79 344.18C151.8 344.21 151.82 344.24 151.84 344.27C151.86 344.3 151.88 344.33 151.9 344.36C151.92 344.39 151.95 344.42 151.97 344.44C152 344.46 152.03 344.49 152.06 344.51C152.09 344.53 152.12 344.55 152.15 344.56C152.18 344.58 152.22 344.59 152.25 344.6C152.28 344.61 152.32 344.62 152.36 344.63C152.39 344.63 152.43 344.64 152.46 344.64L176.26 344.64L176.25 344.63Z" /><path fill-rule="evenodd" class="shp0" d="M39.61 471.37C40.64 472.22 41.6 473.15 42.47 474.16C43.34 475.17 44.12 476.26 44.8 477.4C45.48 478.55 46.05 479.75 46.52 481C46.99 482.25 47.35 483.54 47.6 484.85L34.97 484.85C34.75 484.3 34.5 483.78 34.21 483.27C33.92 482.76 33.59 482.28 33.23 481.82C32.87 481.36 32.47 480.93 32.04 480.54C31.61 480.14 31.16 479.77 30.67 479.44C30.17 479.11 29.64 478.82 29.09 478.56C28.54 478.31 27.97 478.1 27.39 477.93C26.8 477.77 26.21 477.65 25.61 477.57C25.01 477.49 24.4 477.46 23.8 477.48C23 477.45 22.19 477.52 21.41 477.68C20.62 477.84 19.85 478.08 19.12 478.42C18.39 478.75 17.7 479.17 17.07 479.66C16.44 480.15 15.86 480.72 15.35 481.34C13.21 483.91 12.14 487.35 12.14 491.66C12.14 495.96 13.21 499.39 15.35 501.94C15.86 502.56 16.44 503.12 17.07 503.61C17.71 504.1 18.4 504.51 19.13 504.84C19.86 505.17 20.62 505.42 21.41 505.57C22.19 505.73 22.99 505.79 23.8 505.77C24.4 505.78 25.01 505.75 25.61 505.68C26.21 505.6 26.8 505.48 27.38 505.31C27.97 505.14 28.53 504.93 29.08 504.68C29.63 504.43 30.16 504.14 30.67 503.8C31.15 503.48 31.6 503.12 32.03 502.72C32.46 502.33 32.85 501.91 33.22 501.46C33.58 501 33.91 500.53 34.2 500.03C34.49 499.53 34.75 499 34.96 498.47L47.6 498.47C47.35 499.77 46.99 501.06 46.51 502.3C46.04 503.55 45.46 504.75 44.78 505.89C44.1 507.03 43.32 508.12 42.46 509.13C41.59 510.13 40.64 511.07 39.61 511.91C35.49 515.26 30.29 516.93 24.01 516.93C22.91 516.95 21.81 516.9 20.72 516.78C19.63 516.65 18.54 516.46 17.48 516.19C16.41 515.92 15.36 515.58 14.34 515.17C13.32 514.76 12.33 514.28 11.38 513.74C10.48 513.21 9.62 512.62 8.81 511.98C8 511.33 7.23 510.63 6.52 509.87C5.81 509.11 5.16 508.31 4.56 507.46C3.97 506.6 3.43 505.71 2.97 504.79C2.46 503.77 2.02 502.73 1.64 501.66C1.26 500.59 0.94 499.51 0.69 498.4C0.44 497.3 0.26 496.18 0.14 495.05C0.03 493.92 -0.02 492.79 0 491.66C-0.02 490.53 0.03 489.39 0.14 488.27C0.26 487.14 0.44 486.02 0.69 484.92C0.94 483.81 1.26 482.72 1.64 481.65C2.02 480.59 2.46 479.54 2.97 478.53C3.43 477.6 3.97 476.71 4.56 475.86C5.16 475.01 5.81 474.2 6.52 473.45C7.23 472.69 8 471.99 8.81 471.34C9.62 470.69 10.48 470.1 11.38 469.58C12.33 469.04 13.32 468.56 14.34 468.15C15.36 467.74 16.41 467.4 17.48 467.13C18.54 466.86 19.63 466.66 20.72 466.54C21.81 466.41 22.91 466.36 24.01 466.39C30.29 466.39 35.49 468.05 39.61 471.37ZM69.1 476.85C69.77 476.83 70.44 476.86 71.1 476.94C71.77 477.02 72.43 477.14 73.08 477.31C73.73 477.48 74.37 477.7 74.98 477.97C75.6 478.23 76.2 478.54 76.77 478.89C77.3 479.21 77.79 479.58 78.26 479.98C78.73 480.39 79.17 480.83 79.57 481.3C79.97 481.76 80.34 482.26 80.66 482.79C80.99 483.31 81.27 483.86 81.52 484.43L81.52 477.34L93.38 477.34L93.38 516.51L81.52 516.51L81.52 509.42C81.27 509.99 80.99 510.54 80.66 511.06C80.34 511.58 79.97 512.08 79.57 512.55C79.17 513.02 78.73 513.46 78.26 513.87C77.79 514.27 77.3 514.64 76.77 514.96C76.2 515.31 75.6 515.62 74.98 515.88C74.37 516.15 73.73 516.36 73.08 516.54C72.43 516.71 71.77 516.83 71.1 516.91C70.44 516.99 69.77 517.02 69.1 517C68.34 517.01 67.58 516.97 66.83 516.87C66.08 516.77 65.34 516.62 64.61 516.42C63.88 516.21 63.17 515.95 62.48 515.65C61.78 515.34 61.12 514.98 60.48 514.58C59.82 514.15 59.2 513.68 58.62 513.17C58.03 512.65 57.49 512.1 56.98 511.51C56.47 510.92 56.01 510.3 55.59 509.64C55.17 508.98 54.8 508.3 54.48 507.59C54.09 506.76 53.76 505.91 53.48 505.04C53.19 504.16 52.96 503.28 52.77 502.38C52.59 501.48 52.45 500.58 52.37 499.67C52.29 498.75 52.26 497.84 52.28 496.92C52.25 496 52.28 495.08 52.37 494.17C52.45 493.25 52.58 492.34 52.77 491.44C52.95 490.54 53.19 489.66 53.47 488.78C53.76 487.91 54.09 487.05 54.48 486.22C54.8 485.51 55.17 484.83 55.59 484.18C56.01 483.53 56.48 482.91 56.99 482.32C57.49 481.73 58.04 481.18 58.62 480.67C59.21 480.16 59.83 479.69 60.48 479.27C61.12 478.86 61.78 478.51 62.48 478.2C63.17 477.89 63.88 477.64 64.61 477.43C65.34 477.23 66.08 477.07 66.83 476.98C67.58 476.88 68.34 476.84 69.1 476.85ZM71.22 487.49C70.65 487.59 70.1 487.75 69.57 487.97C69.04 488.19 68.53 488.46 68.06 488.79C67.59 489.11 67.15 489.49 66.76 489.91C66.35 490.39 65.99 490.91 65.68 491.46C65.37 492.01 65.11 492.59 64.91 493.19C64.71 493.79 64.57 494.41 64.49 495.03C64.4 495.66 64.38 496.29 64.42 496.93C64.38 497.56 64.4 498.19 64.49 498.82C64.57 499.44 64.71 500.06 64.91 500.66C65.11 501.26 65.37 501.84 65.68 502.39C65.99 502.94 66.35 503.46 66.76 503.95C67.15 504.36 67.59 504.74 68.06 505.06C68.53 505.39 69.04 505.66 69.57 505.88C70.1 506.1 70.65 506.26 71.22 506.36C71.79 506.45 72.36 506.49 72.93 506.47C73.51 506.49 74.09 506.44 74.65 506.34C75.22 506.23 75.77 506.07 76.31 505.84C76.84 505.62 77.34 505.34 77.81 505.01C78.29 504.68 78.72 504.29 79.11 503.87C79.52 503.4 79.89 502.88 80.21 502.34C80.52 501.8 80.78 501.22 80.99 500.63C81.2 500.03 81.34 499.42 81.43 498.8C81.52 498.18 81.55 497.55 81.52 496.92C81.55 496.29 81.53 495.66 81.44 495.03C81.35 494.4 81.2 493.79 81 493.19C80.79 492.59 80.53 492.02 80.21 491.47C79.9 490.92 79.53 490.41 79.11 489.93C78.72 489.51 78.28 489.14 77.81 488.81C77.34 488.48 76.83 488.21 76.3 487.99C75.77 487.77 75.21 487.61 74.65 487.5C74.08 487.4 73.51 487.36 72.93 487.38C72.36 487.36 71.79 487.39 71.22 487.49ZM113.55 464.57L113.55 516.51L101.62 516.51L101.62 464.56L113.55 464.57ZM142.69 476.97C143.58 477.06 144.46 477.21 145.34 477.42C146.21 477.62 147.07 477.88 147.91 478.19C148.75 478.5 149.57 478.86 150.37 479.27C151.12 479.67 151.84 480.11 152.52 480.61C153.21 481.11 153.86 481.65 154.47 482.24C155.07 482.83 155.64 483.47 156.16 484.14C156.67 484.81 157.14 485.52 157.56 486.26C158 487.07 158.4 487.91 158.74 488.77C159.07 489.63 159.35 490.52 159.57 491.42C159.79 492.32 159.95 493.23 160.06 494.15C160.16 495.07 160.2 496 160.17 496.93C160.2 497.85 160.16 498.78 160.06 499.7C159.95 500.62 159.79 501.53 159.57 502.43C159.35 503.33 159.07 504.22 158.74 505.08C158.4 505.94 158 506.78 157.56 507.6C157.14 508.33 156.67 509.04 156.16 509.71C155.64 510.38 155.07 511.02 154.47 511.61C153.86 512.2 153.21 512.74 152.52 513.24C151.84 513.74 151.12 514.19 150.37 514.58C149.57 514.99 148.75 515.35 147.91 515.66C147.07 515.97 146.21 516.23 145.34 516.43C144.46 516.64 143.58 516.79 142.69 516.88C141.8 516.97 140.9 517.01 140 517C139.11 517.01 138.21 516.97 137.31 516.88C136.42 516.78 135.53 516.63 134.65 516.43C133.78 516.22 132.92 515.97 132.07 515.66C131.23 515.35 130.4 514.99 129.6 514.58C128.85 514.18 128.13 513.74 127.44 513.24C126.75 512.75 126.09 512.2 125.48 511.61C124.87 511.02 124.31 510.39 123.79 509.71C123.27 509.04 122.8 508.33 122.38 507.59C121.93 506.78 121.54 505.94 121.2 505.08C120.86 504.21 120.58 503.33 120.36 502.43C120.14 501.53 119.98 500.62 119.88 499.7C119.78 498.78 119.74 497.85 119.76 496.92C119.74 496 119.78 495.07 119.88 494.15C119.98 493.23 120.14 492.31 120.36 491.41C120.58 490.51 120.86 489.63 121.2 488.77C121.54 487.9 121.93 487.06 122.38 486.25C122.8 485.51 123.27 484.8 123.79 484.13C124.31 483.46 124.87 482.82 125.48 482.23C126.09 481.64 126.75 481.1 127.44 480.6C128.13 480.11 128.85 479.66 129.6 479.27C130.4 478.86 131.23 478.5 132.07 478.19C132.92 477.88 133.78 477.62 134.66 477.42C135.53 477.21 136.42 477.06 137.31 476.97C138.21 476.87 139.11 476.83 140 476.85C140.9 476.83 141.8 476.87 142.69 476.97ZM138.4 487.38C137.87 487.49 137.35 487.65 136.86 487.86C136.36 488.07 135.89 488.34 135.45 488.66C135.01 488.97 134.61 489.33 134.25 489.73C132.69 491.39 131.91 493.79 131.91 496.93C131.91 500.07 132.69 502.46 134.25 504.09C134.61 504.49 135.02 504.84 135.46 505.15C135.9 505.46 136.37 505.72 136.86 505.94C137.36 506.15 137.87 506.31 138.4 506.41C138.93 506.51 139.47 506.56 140 506.55C140.54 506.56 141.07 506.51 141.6 506.41C142.13 506.31 142.64 506.15 143.13 505.94C143.62 505.73 144.09 505.46 144.53 505.15C144.96 504.84 145.37 504.49 145.73 504.09C147.26 502.45 148.03 500.07 148.03 496.93C148.03 493.79 147.26 491.39 145.73 489.73C145.37 489.33 144.97 488.97 144.53 488.65C144.1 488.34 143.63 488.07 143.14 487.86C142.65 487.64 142.13 487.48 141.6 487.38C141.08 487.27 140.54 487.22 140 487.24C139.46 487.23 138.93 487.28 138.4 487.38ZM178.32 484.71C178.68 484.13 179.07 483.57 179.49 483.04C179.92 482.51 180.37 482 180.86 481.52C181.34 481.04 181.85 480.59 182.39 480.18C182.93 479.76 183.49 479.37 184.08 479.03C184.65 478.68 185.25 478.37 185.86 478.11C186.48 477.84 187.11 477.62 187.75 477.44C188.4 477.27 189.06 477.13 189.72 477.05C190.38 476.96 191.05 476.92 191.72 476.92L191.72 489.77L188.3 489.77C185.14 489.77 182.68 490.44 180.94 491.8C179.19 493.16 178.32 495.45 178.32 498.68L178.32 516.51L166.39 516.51L166.39 477.34L178.32 477.34L178.32 484.71ZM195.73 465.05C195.81 464.64 195.94 464.23 196.11 463.84C196.28 463.45 196.49 463.08 196.73 462.74C196.98 462.39 197.27 462.07 197.58 461.79C197.94 461.48 198.32 461.21 198.72 460.98C199.13 460.75 199.55 460.55 199.99 460.4C200.43 460.24 200.89 460.13 201.35 460.07C201.81 460 202.28 459.98 202.75 460C203.21 459.98 203.68 460 204.14 460.07C204.61 460.13 205.06 460.24 205.5 460.4C205.94 460.55 206.37 460.75 206.77 460.98C207.18 461.21 207.56 461.48 207.91 461.79C208.23 462.07 208.51 462.39 208.76 462.74C209.01 463.08 209.22 463.45 209.39 463.84C209.56 464.23 209.68 464.64 209.76 465.05C209.84 465.47 209.88 465.89 209.87 466.32C209.88 466.74 209.84 467.16 209.76 467.57C209.67 467.98 209.55 468.38 209.38 468.76C209.21 469.15 209 469.51 208.76 469.85C208.51 470.19 208.23 470.5 207.91 470.78C207.56 471.08 207.18 471.35 206.77 471.59C206.37 471.82 205.94 472.02 205.5 472.17C205.06 472.32 204.61 472.43 204.14 472.5C203.68 472.57 203.21 472.59 202.75 472.57C202.28 472.59 201.81 472.57 201.35 472.5C200.89 472.43 200.43 472.32 199.99 472.17C199.55 472.02 199.13 471.82 198.72 471.59C198.32 471.35 197.94 471.08 197.58 470.78C197.27 470.5 196.99 470.19 196.74 469.85C196.49 469.51 196.28 469.15 196.12 468.76C195.95 468.38 195.82 467.98 195.74 467.57C195.66 467.16 195.62 466.74 195.63 466.32C195.62 465.89 195.65 465.47 195.73 465.05ZM208.68 477.34L208.68 516.51L196.75 516.51L196.75 477.34L208.68 477.34ZM233.72 476.94C234.39 477.01 235.05 477.14 235.7 477.31C236.35 477.48 236.98 477.7 237.6 477.96C238.22 478.23 238.82 478.53 239.39 478.88C239.91 479.21 240.41 479.58 240.88 479.98C241.35 480.39 241.78 480.82 242.19 481.29C242.59 481.76 242.95 482.26 243.28 482.79C243.61 483.31 243.89 483.86 244.14 484.43L244.14 477.34L256 477.34L256 516.51L244.14 516.51L244.14 509.42C243.9 509.99 243.61 510.54 243.28 511.06C242.96 511.58 242.59 512.08 242.19 512.55C241.79 513.02 241.35 513.46 240.88 513.87C240.42 514.27 239.92 514.64 239.39 514.96C238.82 515.31 238.22 515.62 237.6 515.88C236.99 516.15 236.35 516.36 235.7 516.54C235.05 516.71 234.39 516.83 233.72 516.91C233.06 516.99 232.38 517.02 231.71 517C230.96 517.01 230.2 516.97 229.45 516.87C228.7 516.77 227.95 516.62 227.23 516.42C226.5 516.21 225.78 515.95 225.09 515.65C224.4 515.34 223.73 514.98 223.09 514.58C222.44 514.15 221.82 513.68 221.24 513.17C220.65 512.65 220.1 512.1 219.6 511.51C219.09 510.92 218.63 510.3 218.21 509.64C217.79 508.98 217.42 508.3 217.09 507.59C216.71 506.76 216.38 505.91 216.09 505.04C215.81 504.16 215.57 503.28 215.39 502.38C215.2 501.48 215.07 500.58 214.99 499.67C214.9 498.75 214.87 497.84 214.89 496.92C214.87 496 214.9 495.08 214.98 494.17C215.06 493.25 215.2 492.34 215.38 491.44C215.57 490.54 215.8 489.66 216.09 488.78C216.38 487.91 216.71 487.05 217.09 486.22C217.42 485.51 217.79 484.83 218.21 484.18C218.63 483.53 219.1 482.91 219.6 482.32C220.11 481.73 220.66 481.18 221.24 480.67C221.82 480.16 222.44 479.69 223.09 479.27C223.73 478.86 224.4 478.51 225.09 478.2C225.78 477.89 226.5 477.64 227.23 477.43C227.96 477.23 228.7 477.07 229.45 476.98C230.2 476.88 230.96 476.84 231.71 476.85C232.38 476.83 233.05 476.86 233.72 476.94ZM233.84 487.49C233.27 487.59 232.72 487.75 232.19 487.97C231.66 488.18 231.15 488.46 230.68 488.78C230.2 489.11 229.77 489.49 229.37 489.9C228.97 490.39 228.6 490.91 228.29 491.46C227.98 492.01 227.73 492.59 227.53 493.19C227.33 493.79 227.19 494.41 227.1 495.03C227.02 495.66 227 496.29 227.04 496.92C227 497.56 227.02 498.19 227.1 498.82C227.19 499.44 227.33 500.06 227.53 500.66C227.73 501.26 227.98 501.84 228.29 502.39C228.6 502.94 228.97 503.46 229.37 503.94C229.77 504.36 230.2 504.74 230.68 505.06C231.15 505.39 231.66 505.66 232.19 505.88C232.72 506.1 233.27 506.26 233.84 506.36C234.4 506.46 234.98 506.49 235.55 506.47C236.13 506.49 236.7 506.44 237.27 506.34C237.84 506.23 238.39 506.07 238.92 505.84C239.45 505.62 239.96 505.34 240.43 505.01C240.9 504.68 241.34 504.3 241.73 503.87C242.14 503.4 242.51 502.88 242.82 502.34C243.14 501.8 243.4 501.22 243.61 500.63C243.81 500.04 243.96 499.42 244.05 498.8C244.14 498.18 244.17 497.55 244.14 496.92C244.17 496.29 244.14 495.66 244.06 495.03C243.97 494.41 243.82 493.79 243.62 493.19C243.41 492.6 243.15 492.02 242.83 491.47C242.51 490.93 242.14 490.41 241.73 489.94C241.34 489.52 240.9 489.14 240.43 488.81C239.95 488.49 239.45 488.21 238.92 487.99C238.38 487.77 237.83 487.61 237.27 487.5C236.7 487.4 236.13 487.36 235.55 487.38C234.98 487.35 234.4 487.39 233.84 487.49ZM195.63 466.32L195.63 466.32L195.63 466.32Z" /></g></svg>